<svg width="83" height="80" viewBox="0 0 83 80" fill="none" xmlns="http://www.w3.org/2000/svg">
<g clip-path="url(#clip0_150_319)">
<path d="M67.9954 0H15.0038C6.979 0 0.473633 6.50537 0.473633 14.5301V65.4699C0.473633 73.4946 6.979 80 15.0038 80H67.9954C76.0202 80 82.5255 73.4946 82.5255 65.4699V14.5301C82.5255 6.50537 76.0202 0 67.9954 0Z" fill="#330000"/>
<path d="M40.2344 48.0101H27.5187L24.9326 56.0461C24.8984 56.1933 24.8134 56.3238 24.6925 56.4145C24.5716 56.5052 24.4225 56.5503 24.2716 56.5418H17.832C17.464 56.5418 17.3357 56.3397 17.4469 55.9354L28.4556 24.2248C28.5626 23.8943 28.6728 23.52 28.7861 23.1018C28.9291 22.367 29.0026 21.6204 29.0059 20.8718C28.9993 20.8275 29.0016 20.7824 29.0126 20.739C29.0236 20.6956 29.0431 20.6548 29.07 20.619C29.0968 20.5832 29.1305 20.5531 29.1691 20.5304C29.2077 20.5077 29.2503 20.4929 29.2947 20.4868C29.3266 20.4819 29.359 20.4819 29.3909 20.4868H38.1424C38.3991 20.4868 38.5451 20.5782 38.5836 20.7611L51.0779 55.9899C51.1886 56.3557 51.0779 56.5402 50.7474 56.5402H43.5922C43.4694 56.5539 43.3457 56.5223 43.2445 56.4514C43.1432 56.3806 43.0712 56.2753 43.0419 56.1552L40.2344 48.0101ZM29.5016 41.0699H38.1969C37.9777 40.3352 37.721 39.5095 37.4269 38.5929C37.1328 37.6763 36.821 36.6945 36.4916 35.6474L35.5001 32.511C35.1696 31.465 34.867 30.4554 34.5921 29.4821C34.3172 28.5088 34.0675 27.6211 33.8429 26.819H33.7883C33.4783 28.3052 33.0922 29.7745 32.6316 31.2212C32.1183 32.8736 31.5953 34.5618 31.0626 36.2859C30.53 38.01 30.0097 39.6047 29.5016 41.0699Z" fill="#FF9A00"/>
<path d="M58.5075 26.3233C57.9461 26.3457 57.3863 26.2494 56.8646 26.0407C56.343 25.8319 55.8712 25.5155 55.4802 25.1121C55.0902 24.6911 54.7874 24.1971 54.5891 23.6585C54.3909 23.1199 54.3011 22.5475 54.3251 21.9741C54.306 21.4075 54.4064 20.8433 54.6198 20.3181C54.8332 19.793 55.1548 19.3186 55.5636 18.9259C55.9685 18.5373 56.4462 18.2326 56.9694 18.0294C57.4925 17.8262 58.0507 17.7285 58.6118 17.7419C59.9326 17.7419 60.969 18.1366 61.7209 18.9259C62.4836 19.7535 62.8875 20.8495 62.8439 21.9741C62.8671 22.5498 62.7742 23.1243 62.5708 23.6634C62.3674 24.2025 62.0576 24.6952 61.6599 25.1121C61.2461 25.52 60.7525 25.8382 60.2101 26.0466C59.6676 26.255 59.088 26.3492 58.5075 26.3233ZM54.7101 55.9901V29.6795C54.7101 29.3491 54.8561 29.1838 55.1497 29.1838H61.9182C62.2102 29.1838 62.3578 29.3442 62.3578 29.6795V55.9901C62.3578 56.3558 62.2118 56.5403 61.9182 56.5403H55.2058C54.8753 56.5419 54.7101 56.3574 54.7101 55.9901Z" fill="#FF9A00"/>
</g>
<defs>
<clipPath id="clip0_150_319">
<rect width="82.0519" height="80" fill="white" transform="translate(0.473633)"/>
</clipPath>
</defs>
</svg>
