<svg width="84" height="80" viewBox="0 0 84 80" fill="none" xmlns="http://www.w3.org/2000/svg">
<g clip-path="url(#clip0_150_324)">
<path d="M68.4961 0H15.5037C7.47952 0 0.974609 6.50491 0.974609 14.5291V65.4709C0.974609 73.4951 7.47952 80 15.5037 80H68.4961C76.5203 80 83.0252 73.4951 83.0252 65.4709V14.5291C83.0252 6.50491 76.5203 0 68.4961 0Z" fill="#001E36"/>
<path d="M19.4512 56.1011V20.9279C19.4512 20.6729 19.5602 20.5431 19.7815 20.5431C20.3667 20.5431 20.9038 20.5431 21.7054 20.5158C22.5071 20.4886 23.3841 20.4789 24.3204 20.4613L27.2929 20.4052C28.3383 20.387 29.3745 20.3779 30.4017 20.3779C33.1904 20.3779 35.5419 20.7264 37.4563 21.4233C39.1772 22.0067 40.7468 22.9656 42.0513 24.2307C43.1575 25.3278 44.012 26.6522 44.5557 28.1123C45.0701 29.534 45.33 31.0351 45.3237 32.547C45.3237 35.4842 44.6449 37.9063 43.2875 39.8132C41.9204 41.7282 39.9995 43.1786 37.7833 43.9689C35.4714 44.8315 32.9013 45.1233 30.0763 45.1233C29.2746 45.1233 28.7006 45.1153 28.3703 45.096C28.0401 45.0768 27.5446 45.0688 26.8841 45.0688V56.0498C26.8925 56.1068 26.8895 56.1649 26.8753 56.2207C26.8611 56.2765 26.8359 56.329 26.8014 56.3751C26.7668 56.4211 26.7234 56.4599 26.6738 56.4891C26.6241 56.5183 26.5692 56.5374 26.5121 56.5452C26.4712 56.5516 26.4296 56.5516 26.3887 56.5452H19.836C19.573 56.5404 19.4512 56.3945 19.4512 56.1011ZM26.8841 27.1487V38.6203C27.3608 38.6577 27.8012 38.6759 28.2052 38.6748H30.0217C31.3584 38.6703 32.6862 38.4582 33.9579 38.0463C35.0479 37.7239 36.0224 37.095 36.7652 36.2346C37.4803 35.3913 37.8378 34.2155 37.8378 32.7073C37.8656 31.6424 37.5874 30.5919 37.0362 29.6803C36.4585 28.7985 35.6233 28.1161 34.6441 27.7259C33.3676 27.2301 32.0045 26.9962 30.6358 27.038C29.754 27.038 28.9743 27.0471 28.2966 27.0653C27.6189 27.0835 27.1508 27.1113 26.8921 27.1487H26.8841Z" fill="#31A8FF"/>
<path d="M66.6053 36.5345C65.5709 36.0025 64.469 35.6136 63.3298 35.3786C62.0749 35.0902 60.7919 34.9423 59.5043 34.9377C58.808 34.9191 58.1128 35.0028 57.4408 35.1862C57.0126 35.281 56.632 35.5247 56.3666 35.874C56.1873 36.1533 56.0921 36.4784 56.0925 36.8103C56.1022 37.1322 56.2183 37.4417 56.4228 37.6905C56.744 38.0667 57.137 38.3752 57.5787 38.598C58.3631 39.0192 59.1714 39.3939 59.9997 39.7203C61.8471 40.3391 63.6124 41.18 65.257 42.2247C66.3762 42.9323 67.3027 43.9062 67.9537 45.0593C68.5023 46.1529 68.7774 47.3633 68.7554 48.5866C68.7879 50.1998 68.3269 51.7846 67.4342 53.1287C66.4779 54.4922 65.1501 55.5523 63.6088 56.183C61.9349 56.9184 59.8688 57.2861 57.4104 57.2861C55.8494 57.3006 54.2912 57.1528 52.7608 56.8452C51.5547 56.624 50.3806 56.254 49.2656 55.7437C49.145 55.6818 49.0445 55.5868 48.9761 55.4698C48.9076 55.3528 48.874 55.2186 48.8792 55.0832V49.1397C48.8723 49.0814 48.8814 49.0223 48.9057 48.9689C48.9301 48.9155 48.9686 48.8697 49.0171 48.8367C49.0643 48.8097 49.1187 48.7979 49.1729 48.8027C49.2271 48.8076 49.2785 48.829 49.3201 48.8639C50.6382 49.641 52.0696 50.2074 53.5625 50.5426C54.8774 50.8726 56.2263 51.048 57.5819 51.0653C58.8646 51.0653 59.8095 50.9001 60.4166 50.5699C60.6899 50.4447 60.921 50.243 61.0821 49.9892C61.2431 49.7353 61.3272 49.4403 61.324 49.1397C61.324 48.6619 61.0488 48.2028 60.4983 47.7625C59.9479 47.3221 58.8277 46.793 57.1378 46.1752C55.4096 45.5738 53.771 44.7405 52.267 43.6981C51.1913 42.9509 50.3052 41.9626 49.6793 40.8122C49.1368 39.7278 48.8619 38.5293 48.8776 37.317C48.8729 35.8565 49.2736 34.4234 50.0352 33.1772C50.9005 31.8081 52.1433 30.7184 53.6138 30.0396C55.2278 29.2326 57.2458 28.8291 59.6678 28.8291C61.0866 28.8172 62.5041 28.9179 63.907 29.1305C64.9225 29.2611 65.9151 29.5308 66.857 29.9321C66.9318 29.9536 67.0006 29.9921 67.0579 30.0447C67.1152 30.0973 67.1595 30.1625 67.1873 30.2352C67.2246 30.3693 67.243 30.508 67.2418 30.6472V36.2075C67.2463 36.2717 67.2338 36.336 67.2057 36.394C67.1776 36.4519 67.1348 36.5015 67.0815 36.5378C67.0073 36.5741 66.9257 36.5927 66.843 36.5922C66.7604 36.5916 66.679 36.5719 66.6053 36.5345Z" fill="#31A8FF"/>
</g>
<defs>
<clipPath id="clip0_150_324">
<rect width="82.0506" height="80" fill="white" transform="translate(0.974609)"/>
</clipPath>
</defs>
</svg>
