<svg width="80" height="72" viewBox="0 0 80 72" fill="none" xmlns="http://www.w3.org/2000/svg">
<g filter="url(#filter0_d_112_335)">
<path d="M62.0097 30.0209C61.1681 28.8936 60 28.0213 58.6993 27.5265C58.6483 26.2666 57.7556 25.221 56.5671 24.9353C56.0876 20.9311 54.1901 17.233 51.1806 14.4735C48.0436 11.5864 43.9782 10 39.7394 10C35.5006 10 31.4352 11.5864 28.2982 14.4735C25.2938 17.2279 23.3962 20.926 22.9168 24.9251C21.6926 25.1904 20.7642 26.2615 20.7234 27.5521C17.8822 28.6538 16 31.3675 16 34.4382C16 37.5089 17.8822 40.2226 20.7234 41.3244C20.7744 42.8138 21.9986 44.0125 23.5034 44.0125C25.0336 44.0125 26.2833 42.7679 26.2833 41.2326V27.6388C26.2833 26.3125 25.3499 25.2057 24.1104 24.9251C25.1101 17.1718 31.8688 11.1783 39.7394 11.1783C47.6049 11.1783 54.3585 17.1616 55.3735 24.9098C54.1034 25.1649 53.1445 26.2921 53.1445 27.6337V41.2275C53.1445 42.6251 54.1799 43.783 55.5215 43.9768C55.4959 49.2103 50.6399 50.1387 44.6668 50.5875C44.3812 49.3582 43.2743 48.4401 41.9583 48.4401H37.3522C35.8219 48.4401 34.5722 49.6847 34.5722 51.22C34.5722 52.7503 35.8168 54 37.3522 54H41.9583C43.2998 54 44.4271 53.041 44.6821 51.776C47.4876 51.5669 50.5838 51.22 52.8588 50.1233C55.4602 48.8685 56.7201 46.8282 56.6997 43.8952C57.8168 43.5687 58.6483 42.5537 58.6942 41.3397C60 40.8449 61.163 39.9675 62.0046 38.8454C62.9687 37.5599 63.4788 36.0297 63.4788 34.428C63.4839 32.8314 62.9738 31.3063 62.0097 30.0209ZM17.1783 34.4331C17.1783 32.0102 18.5708 29.8525 20.7183 28.8324V40.0339C18.5708 39.0137 17.1783 36.856 17.1783 34.4331ZM25.0948 27.6388V41.2326C25.0948 42.115 24.3807 42.8291 23.4983 42.8291C22.6158 42.8291 21.9017 42.115 21.9017 41.2326V27.6388C21.9017 26.7563 22.6158 26.0422 23.4983 26.0422C24.3807 26.0422 25.0948 26.7563 25.0948 27.6388ZM41.9583 52.8217H37.3522C36.4697 52.8217 35.7556 52.1076 35.7556 51.2251C35.7556 50.3427 36.4697 49.6286 37.3522 49.6286H41.9583C42.8407 49.6286 43.5548 50.3427 43.5548 51.2251C43.5548 52.1025 42.8356 52.8217 41.9583 52.8217ZM57.521 41.2275C57.521 42.1099 56.8069 42.824 55.9244 42.824C55.042 42.824 54.3278 42.1099 54.3278 41.2275V27.6388C54.3278 26.7563 55.042 26.0422 55.9244 26.0422C56.8069 26.0422 57.521 26.7563 57.521 27.6388V41.2275ZM58.6993 40.0594V28.8069C60.8518 29.8168 62.3005 32.0255 62.3005 34.4331C62.3005 36.8407 60.8569 39.0494 58.6993 40.0594ZM34.9242 38.8811L35.1078 39.738C35.2506 40.4266 35.8423 40.9061 36.5463 40.9061H38.0765C38.7804 40.9061 39.3721 40.4266 39.515 39.738L39.6986 38.8811C39.719 38.779 39.7751 38.7076 39.8771 38.6719C39.9893 38.626 40.1067 38.5801 40.2189 38.5291C40.3158 38.4832 40.4025 38.4934 40.4943 38.5495L41.2288 39.029C41.8154 39.4115 42.5755 39.3299 43.0703 38.8352L44.1516 37.7538C44.6464 37.259 44.728 36.499 44.3455 35.9124L43.866 35.1778C43.8099 35.086 43.7997 34.9993 43.8456 34.9024C43.8966 34.7902 43.9425 34.678 43.9884 34.5657C44.0292 34.4637 44.0955 34.4076 44.1975 34.3872L45.0545 34.2036C45.7431 34.0607 46.2226 33.469 46.2226 32.7651V31.2349C46.2226 31.0869 46.2022 30.9441 46.1614 30.8115C46.2481 30.6789 46.3093 30.5259 46.345 30.3626L46.498 29.6485C46.5082 29.5975 46.5337 29.5669 46.5847 29.5465C46.6817 29.5108 46.7786 29.47 46.8704 29.4292C46.9214 29.4088 46.9571 29.4088 47.003 29.4394L47.6151 29.8372C48.1456 30.179 48.824 30.1127 49.2729 29.6638L50.1706 28.7661C50.6144 28.3223 50.6858 27.6388 50.3441 27.1083L49.9462 26.4962C49.9156 26.4503 49.9156 26.4146 49.936 26.3636C49.9768 26.2666 50.0176 26.1748 50.0533 26.0779C50.0737 26.0269 50.0992 26.0014 50.1553 25.9912L50.8695 25.8382C51.4867 25.7055 51.9151 25.1751 51.9151 24.5476V23.2724C51.9151 22.6399 51.4816 22.1094 50.8695 21.9819L50.1553 21.8289C50.1043 21.8187 50.0737 21.7932 50.0533 21.7422C50.0176 21.6453 49.9768 21.5483 49.936 21.4565C49.9156 21.4055 49.9156 21.3698 49.9462 21.3239L50.3441 20.7118C50.6858 20.1813 50.6144 19.5029 50.1706 19.054L49.2729 18.1563C48.8291 17.7125 48.1456 17.6411 47.6151 17.9828L47.003 18.3807C46.9571 18.4113 46.9214 18.4113 46.8704 18.3909C46.7786 18.3501 46.6817 18.3093 46.5847 18.2736C46.5337 18.2532 46.5082 18.2277 46.498 18.1716L46.345 17.4575C46.2124 16.8403 45.6819 16.4118 45.0545 16.4118H43.7793C43.1468 16.4118 42.6163 16.8454 42.4888 17.4575L42.3357 18.1716C42.3255 18.2226 42.3 18.2532 42.249 18.2736C42.1521 18.3093 42.0552 18.3501 41.9634 18.3909C41.9124 18.4113 41.8767 18.4113 41.8307 18.3807L41.2186 17.9828C40.6882 17.6411 40.0097 17.7125 39.5609 18.1563L38.6631 19.054C38.2193 19.4978 38.1479 20.1813 38.4897 20.7118L38.8876 21.3239C38.9182 21.3698 38.9182 21.4055 38.8978 21.4565C38.8569 21.5483 38.8161 21.6453 38.7804 21.7422C38.76 21.7932 38.7345 21.8187 38.6784 21.8289L37.9643 21.9819C37.4083 22.0992 37.0053 22.543 36.9288 23.0939H36.5463C35.8423 23.0939 35.2506 23.5734 35.1078 24.262L34.9242 25.1189C34.9038 25.221 34.8477 25.2924 34.7457 25.3281C34.6334 25.374 34.5161 25.4199 34.409 25.4709C34.3121 25.5168 34.2254 25.5066 34.1336 25.4505L33.399 24.971C32.8124 24.5885 32.0524 24.6701 31.5576 25.1649L30.4762 26.2462C29.9815 26.741 29.8998 27.501 30.2824 28.0876L30.7619 28.8222C30.818 28.914 30.8282 29.0007 30.7823 29.0976C30.7313 29.2098 30.6854 29.3221 30.6395 29.4343C30.5987 29.5363 30.5323 29.5924 30.4303 29.6128L29.5734 29.7964C28.8848 29.9393 28.4053 30.531 28.4053 31.2349V32.7651C28.4053 33.469 28.8848 34.0607 29.5734 34.2036L30.4303 34.3872C30.5323 34.4076 30.6038 34.4637 30.6395 34.5657C30.6854 34.678 30.7313 34.7953 30.7823 34.9024C30.8282 34.9993 30.818 35.086 30.7619 35.1778L30.2824 35.9124C29.8998 36.499 29.9764 37.259 30.4762 37.7538L31.5576 38.8352C32.0524 39.3299 32.8124 39.4115 33.399 39.029L34.1336 38.5495C34.2254 38.4934 34.3121 38.4832 34.409 38.5291C34.5212 38.5801 34.6334 38.626 34.7457 38.6719C34.8477 38.7127 34.9038 38.779 34.9242 38.8811ZM38.9182 22.9868C39.367 22.8899 39.7139 22.594 39.8771 22.1706C39.9077 22.0941 39.9383 22.0176 39.974 21.9411C40.1577 21.5228 40.122 21.0638 39.872 20.6812L39.4741 20.0691C39.4384 20.013 39.4435 19.9416 39.4946 19.8957L40.3923 18.9979C40.4433 18.9469 40.5096 18.9418 40.5657 18.9775L41.1778 19.3754C41.5604 19.6253 42.0195 19.661 42.4377 19.4774C42.5143 19.4417 42.5908 19.4111 42.6673 19.3805C43.0907 19.2173 43.3916 18.8653 43.4834 18.4215L43.6364 17.7074C43.6518 17.6411 43.7028 17.5952 43.7742 17.5952H45.0494C45.1208 17.5952 45.1718 17.636 45.1871 17.7074L45.3401 18.4215C45.4371 18.8704 45.7329 19.2173 46.1614 19.3805C46.2379 19.4111 46.3144 19.4417 46.3909 19.4774C46.8092 19.661 47.2683 19.6253 47.6508 19.3754L48.2629 18.9775C48.319 18.9418 48.3905 18.9469 48.4364 18.9979L49.3341 19.8957C49.3851 19.9467 49.3902 20.013 49.3545 20.0691L48.9566 20.6812C48.7067 21.0638 48.671 21.5228 48.8546 21.9411C48.8903 22.0176 48.9209 22.0941 48.9515 22.1706C49.1148 22.594 49.4667 22.895 49.9105 22.9868L50.6246 23.1398C50.6909 23.1551 50.7368 23.2061 50.7368 23.2775V24.5527C50.7368 24.6242 50.696 24.6752 50.6246 24.6905L49.9105 24.8435C49.4667 24.9404 49.1148 25.2363 48.9515 25.6647C48.9209 25.7413 48.8903 25.8178 48.8546 25.8943C48.671 26.3125 48.7067 26.7716 48.9566 27.1542L49.3545 27.7663C49.3902 27.8224 49.3851 27.8938 49.3341 27.9397L48.4364 28.8375C48.3853 28.8885 48.319 28.8936 48.2629 28.8579L47.6508 28.46C47.2683 28.2101 46.8092 28.1744 46.3909 28.358C46.3144 28.3937 46.2379 28.4243 46.1614 28.4549C45.738 28.6181 45.4371 28.9701 45.3452 29.4139L45.2534 29.8576C45.1922 29.8372 45.131 29.8168 45.0647 29.8015L44.2077 29.6179C44.1057 29.5975 44.0394 29.5414 43.9986 29.4394C43.9527 29.3272 43.9068 29.2098 43.8558 29.1027C43.8099 29.0058 43.8201 28.9191 43.8762 28.8273L44.3557 28.0927C44.4067 28.0162 44.4475 27.9397 44.4781 27.8632C46.6256 27.8326 48.3649 26.0779 48.3649 23.9202C48.3649 21.7473 46.5949 19.9773 44.422 19.9773C42.249 19.9773 40.479 21.7473 40.479 23.9202C40.479 24.3946 40.5657 24.8639 40.7341 25.3077L40.5045 25.4556C40.4127 25.5117 40.326 25.5219 40.2291 25.476C40.1169 25.425 40.0046 25.3791 39.8924 25.3332C39.7904 25.2924 39.7343 25.2261 39.7139 25.124L39.5303 24.2671C39.4027 23.6601 38.9284 23.2163 38.3316 23.1194L38.9182 22.9868ZM41.7797 24.7517C41.693 24.4813 41.6471 24.2008 41.6471 23.9151C41.6471 22.39 42.8866 21.1505 44.4118 21.1505C45.9369 21.1505 47.1764 22.39 47.1764 23.9151C47.1764 25.425 45.9573 26.6543 44.4526 26.6747C44.3812 26.5217 44.2792 26.3738 44.1516 26.2462L43.0703 25.1649C42.7183 24.8129 42.2388 24.6701 41.7797 24.7517ZM34.2866 37.3202C34.0111 37.3202 33.7357 37.4018 33.4908 37.5599L32.7563 38.0394C32.639 38.1159 32.4962 38.1006 32.3942 38.0037L31.3128 36.9223C31.2159 36.8254 31.2006 36.6775 31.2771 36.5602L31.7566 35.8256C32.032 35.4023 32.0728 34.8871 31.8688 34.428C31.828 34.3362 31.7872 34.2393 31.7515 34.1475C31.5678 33.6731 31.1802 33.3415 30.6854 33.2344L29.8284 33.0508C29.6805 33.0202 29.5887 32.908 29.5887 32.7651V31.2349C29.5887 31.0972 29.6805 30.9798 29.8182 30.9543L30.6752 30.7707C31.17 30.6636 31.5627 30.332 31.7412 29.8576C31.777 29.7607 31.8178 29.6689 31.8586 29.5771C32.0677 29.1129 32.0269 28.6028 31.7464 28.1795L31.2669 27.4449C31.1904 27.3276 31.2057 27.1848 31.3026 27.0828L32.384 26.0014C32.4809 25.9045 32.6288 25.8892 32.7461 25.9657L33.4806 26.4452C33.904 26.7206 34.4192 26.7614 34.8834 26.5574C34.9752 26.5166 35.0721 26.4758 35.1639 26.4401C35.6383 26.2564 35.9699 25.8688 36.077 25.374L36.2606 24.517C36.2912 24.3793 36.4034 24.2875 36.5412 24.2875H38.0714C38.2091 24.2875 38.3265 24.3793 38.352 24.517L38.5356 25.374C38.6427 25.8688 38.9743 26.2615 39.4486 26.4401C39.5405 26.4758 39.6374 26.5166 39.7292 26.5574C40.1934 26.7665 40.7035 26.7257 41.1319 26.4452L41.8665 25.9657C41.9838 25.8892 42.1266 25.9045 42.2286 26.0014L43.31 27.0828C43.4069 27.1797 43.4222 27.3276 43.3457 27.4449L42.8662 28.1795C42.5908 28.6028 42.55 29.118 42.754 29.5822C42.7948 29.674 42.8356 29.7709 42.8713 29.8627C43.055 30.3371 43.4426 30.6687 43.9374 30.7758L44.7943 30.9594C44.9321 30.99 45.0239 31.1023 45.0239 31.24V32.7702C45.0239 32.908 44.9321 33.0253 44.7943 33.0508L43.9374 33.2344C43.4426 33.3415 43.0499 33.6731 42.8713 34.1475C42.8356 34.2444 42.7948 34.3362 42.754 34.428C42.5449 34.8922 42.5857 35.4023 42.8662 35.8307L43.3457 36.5653C43.4222 36.6826 43.4069 36.8254 43.31 36.9274L42.2286 38.0088C42.1317 38.1057 41.9838 38.121 41.8665 38.0445L41.1319 37.565C40.7086 37.2896 40.1934 37.2488 39.7292 37.4528C39.6374 37.4936 39.5405 37.5344 39.4486 37.5701C38.9743 37.7538 38.6427 38.1414 38.5356 38.6362L38.352 39.4932C38.3214 39.6309 38.2091 39.7227 38.0714 39.7227H36.5412C36.4034 39.7227 36.2861 39.6309 36.2606 39.4932L36.077 38.6362C35.9699 38.1414 35.6383 37.7487 35.1639 37.5701C35.0721 37.5344 34.9752 37.4936 34.8834 37.4528C34.6946 37.3661 34.4906 37.3202 34.2866 37.3202ZM41.943 32C41.943 29.4496 39.8669 27.3735 37.3165 27.3735C34.7661 27.3735 32.6849 29.4496 32.6849 32C32.6849 34.5504 34.761 36.6265 37.3114 36.6265C39.8618 36.6265 41.943 34.5504 41.943 32ZM33.8683 32C33.8683 30.0974 35.4139 28.5518 37.3165 28.5518C39.2191 28.5518 40.7647 30.0974 40.7647 32C40.7647 33.9026 39.2191 35.4482 37.3165 35.4482C35.4139 35.4482 33.8683 33.9026 33.8683 32Z" fill="white"/>
</g>
<defs>
<filter id="filter0_d_112_335" x="-4" y="0" width="87.479" height="84" filterUnits="userSpaceOnUse" color-interpolation-filters="sRGB">
<feFlood flood-opacity="0" result="BackgroundImageFix"/>
<feColorMatrix in="SourceAlpha" type="matrix" values="0 0 0 0 0 0 0 0 0 0 0 0 0 0 0 0 0 0 127 0" result="hardAlpha"/>
<feOffset dy="10"/>
<feGaussianBlur stdDeviation="10"/>
<feComposite in2="hardAlpha" operator="out"/>
<feColorMatrix type="matrix" values="0 0 0 0 1 0 0 0 0 1 0 0 0 0 1 0 0 0 0.4 0"/>
<feBlend mode="color-dodge" in2="BackgroundImageFix" result="effect1_dropShadow_112_335"/>
<feBlend mode="normal" in="SourceGraphic" in2="effect1_dropShadow_112_335" result="shape"/>
</filter>
</defs>
</svg>
