<svg width="128" height="48" viewBox="0 0 128 48" fill="none" xmlns="http://www.w3.org/2000/svg">
<g clip-path="url(#clip0_112_264)">
<path fill-rule="evenodd" clip-rule="evenodd" d="M123.457 31.9803C123.533 32.8499 124.228 33.9567 125.434 33.9567H126.138C126.412 33.9567 126.636 33.7327 126.636 33.4592V17.9535H126.633C126.619 17.6922 126.403 17.483 126.138 17.483H123.954C123.69 17.483 123.474 17.6922 123.46 17.9535H123.457V19.2134C122.118 17.5635 120.008 16.8787 117.892 16.8787C113.081 16.8787 109.182 20.7811 109.182 25.5953C109.182 30.4099 113.081 34.3124 117.892 34.3124C120.008 34.3124 122.315 33.4911 123.457 31.9784V31.9803ZM117.9 31.2617C114.841 31.2617 112.361 28.725 112.361 25.5953C112.361 22.4663 114.841 19.9295 117.9 19.9295C120.96 19.9295 123.44 22.4663 123.44 25.5953C123.44 28.725 120.96 31.2617 117.9 31.2617Z" fill="black"/>
<path fill-rule="evenodd" clip-rule="evenodd" d="M106.419 24.49C106.419 19.9672 103.568 16.916 99.022 16.916C96.8516 16.916 95.0725 18.172 94.4441 19.2509C94.3083 18.4073 93.8608 17.5205 92.473 17.5205H91.7656C91.492 17.5205 91.2686 17.7447 91.2686 18.0182V32.0191C91.2686 32.0196 91.2686 32.0206 91.2686 32.0213V33.5252H91.2713C91.2856 33.786 91.5016 33.9955 91.7658 33.9955H93.9505C93.9839 33.9955 94.0167 33.9915 94.0484 33.9854C94.0629 33.9825 94.0763 33.9768 94.0904 33.9729C94.1066 33.9679 94.1236 33.964 94.139 33.9576C94.1584 33.9496 94.1761 33.9388 94.1941 33.9287C94.203 33.9232 94.2123 33.9194 94.2208 33.9138C94.2426 33.8997 94.2626 33.8827 94.282 33.8655C94.2851 33.8623 94.2889 33.8601 94.2921 33.8572C94.3138 33.8362 94.3337 33.813 94.3512 33.7889C94.4058 33.7138 94.4392 33.6229 94.4447 33.5252H94.4475V24.3656C94.4475 21.9365 96.4154 19.9672 98.8428 19.9672C101.27 19.9672 103.238 21.9365 103.238 24.3656L103.24 32.0218L103.24 32.0191C103.24 32.0259 103.242 32.0329 103.242 32.0401V33.5252H103.244C103.259 33.786 103.475 33.9955 103.739 33.9955H105.924C105.957 33.9955 105.99 33.9915 106.021 33.9854C106.034 33.983 106.046 33.9777 106.059 33.9742C106.077 33.969 106.095 33.9646 106.112 33.9576C106.13 33.9502 106.147 33.9399 106.163 33.9304C106.174 33.9246 106.185 33.9204 106.194 33.9138C106.215 33.9005 106.233 33.8844 106.251 33.8687C106.256 33.8643 106.261 33.8612 106.265 33.8568C106.286 33.8368 106.305 33.8152 106.321 33.7926C106.323 33.7909 106.324 33.7896 106.325 33.7879C106.379 33.7134 106.412 33.6235 106.418 33.5265C106.418 33.5258 106.418 33.5252 106.418 33.5252H106.421L106.419 24.49Z" fill="black"/>
<path fill-rule="evenodd" clip-rule="evenodd" d="M83.6678 31.9803C83.7442 32.8498 84.4398 33.9566 85.6448 33.9566H86.3498C86.6231 33.9566 86.8468 33.7327 86.8468 33.4591V17.9535H86.844C86.8298 17.6922 86.6136 17.483 86.3498 17.483H84.1651C83.9009 17.483 83.6851 17.6922 83.6703 17.9535H83.6678V19.2134C82.3292 17.5635 80.2189 16.8787 78.1026 16.8787C73.2924 16.8787 69.3931 20.7811 69.3931 25.5954C69.3931 30.4098 73.2924 34.3124 78.1026 34.3124C80.2189 34.3124 82.5252 33.4912 83.6676 31.9783L83.6678 31.9803ZM78.1111 31.2616C75.052 31.2616 72.5718 28.725 72.5718 25.5954C72.5718 22.4663 75.052 19.9295 78.1111 19.9295C81.1706 19.9295 83.6503 22.4663 83.6503 25.5954C83.6503 28.725 81.1706 31.2616 78.1111 31.2616Z" fill="black"/>
<path fill-rule="evenodd" clip-rule="evenodd" d="M56.4739 29.7596C57.9323 30.7707 59.5242 31.2618 61.054 31.2618C62.5114 31.2618 64.0181 30.5057 64.0181 29.1896C64.0181 27.4325 60.735 27.1591 58.6723 26.4575C56.6091 25.7559 54.8322 24.3055 54.8322 21.9568C54.8322 18.3628 58.0321 16.8784 61.0187 16.8784C62.9109 16.8784 64.8633 17.5029 66.1291 18.3975C66.565 18.728 66.2996 19.1075 66.2996 19.1075L65.0913 20.8346C64.9555 21.0291 64.718 21.1972 64.3772 20.9866C64.0363 20.7762 62.8407 19.9293 61.0187 19.9293C59.1964 19.9293 58.0988 20.7715 58.0988 21.8153C58.0988 23.067 59.5254 23.4607 61.1963 23.8874C64.1082 24.6729 67.2847 25.6171 67.2847 29.1896C67.2847 32.3561 64.325 34.3131 61.054 34.3131C58.5752 34.3131 56.4648 33.6059 54.6948 32.306C54.326 31.9367 54.5835 31.5938 54.5835 31.5938L55.7859 29.8755C56.0306 29.5542 56.339 29.6663 56.4739 29.7596Z" fill="black"/>
<path fill-rule="evenodd" clip-rule="evenodd" d="M48.0752 31.9803C48.1515 32.8498 48.8471 33.9566 50.052 33.9566H50.7571C51.0304 33.9566 51.2544 33.7327 51.2544 33.4591V17.9535H51.2513C51.237 17.6922 51.0212 17.483 50.7571 17.483H48.5725C48.3083 17.483 48.0925 17.6922 48.0778 17.9535H48.0752V19.2134C46.7367 17.5635 44.6263 16.8787 42.5101 16.8787C37.6998 16.8787 33.8003 20.7811 33.8003 25.5954C33.8003 30.4098 37.6998 34.3124 42.5101 34.3124C44.6263 34.3124 46.9326 33.4912 48.0748 31.9783L48.0752 31.9803ZM42.5186 31.2616C39.4593 31.2616 36.9792 28.725 36.9792 25.5954C36.9792 22.4663 39.4593 19.9295 42.5186 19.9295C45.5778 19.9295 48.0577 22.4663 48.0577 25.5954C48.0577 28.725 45.5778 31.2616 42.5186 31.2616Z" fill="black"/>
<path fill-rule="evenodd" clip-rule="evenodd" d="M21.5895 26.1881C18.3525 26.1881 15.7282 28.8123 15.7282 32.0497C15.7282 35.2868 18.3525 37.911 21.5895 37.911C24.8267 37.911 27.4509 35.2868 27.4509 32.0497C27.4509 28.8123 24.8267 26.1881 21.5895 26.1881ZM6.36134 26.1886C3.12424 26.1886 0.5 28.8123 0.5 32.0497C0.5 35.2868 3.12424 37.911 6.36134 37.911C9.59858 37.911 12.223 35.2868 12.223 32.0497C12.223 28.8123 9.59858 26.1886 6.36134 26.1886ZM19.8367 18.8612C19.8367 22.0986 17.2126 24.7231 13.9755 24.7231C10.7382 24.7231 8.11414 22.0986 8.11414 18.8612C8.11414 15.6245 10.7382 13 13.9755 13C17.2126 13 19.8367 15.6245 19.8367 18.8612Z" fill="black"/>
</g>
<defs>
<clipPath id="clip0_112_264">
<rect width="127" height="48" fill="white" transform="translate(0.5)"/>
</clipPath>
</defs>
</svg>
