<svg width="44" height="38" viewBox="0 0 44 38" fill="none" xmlns="http://www.w3.org/2000/svg">
<path d="M3.37852 14.8092C2.91818 14.5635 2.44636 14.7507 2.14788 15.3074C1.27541 16.9341 0.670424 18.6572 0.340952 20.4745C0.205489 21.2184 0.112503 21.9703 0 22.7177V25.3006C0.0264037 25.4395 0.0654352 25.5785 0.078063 25.7185C0.278961 28.042 0.888541 30.2496 1.92862 32.3366C2.2248 32.9302 2.69662 33.1333 3.17418 32.8842C3.64141 32.6409 3.74588 32.169 3.47266 31.5836C1.04926 26.3935 1.09747 21.2345 3.67011 16.1076C3.95022 15.5497 3.83886 15.0526 3.37852 14.8081V14.8092Z" fill="black"/>
<path d="M31.5776 13.5809C32.4823 10.6833 33.3685 7.77893 34.2662 4.87912C34.3902 4.47733 34.3856 4.10997 34.0493 3.81609C33.7118 3.5222 33.3524 3.56812 32.9713 3.7518C31.8888 4.27184 30.7993 4.78154 29.7099 5.28666C27.6309 6.25096 25.5346 5.55873 24.4372 3.54516C23.9022 2.56363 23.3707 1.58096 22.8449 0.595986C22.6647 0.25733 22.4248 0.00706957 22.0218 0.000181658C21.5971 -0.00785424 21.3491 0.251591 21.1608 0.60517C20.6362 1.59129 20.1058 2.57511 19.5686 3.55549C18.4665 5.56676 16.3691 6.25211 14.2913 5.28321C13.2409 4.79302 12.1916 4.30168 11.1481 3.80001C10.7383 3.60371 10.3399 3.47513 9.95304 3.82183C9.58568 4.15245 9.64538 4.54621 9.77625 4.96981C10.6671 7.84207 11.5441 10.7189 12.4373 13.59C12.5291 13.8839 12.4878 14.0676 12.2639 14.296C10.0678 16.5484 8.7178 19.2439 8.45032 22.3767C7.96702 28.0328 10.1689 32.44 14.9307 35.5097C15.833 36.0917 16.8823 36.4533 17.8822 36.8712C18.3402 37.0629 18.8189 36.8012 18.9728 36.3753C19.1381 35.9161 18.9223 35.4638 18.4378 35.2617C18.346 35.2227 18.2495 35.1928 18.1554 35.1595C12.8023 33.2952 9.51336 28.0661 10.1528 22.4387C10.8301 16.4749 15.9983 11.8795 22.3432 11.8899C22.6762 11.9232 23.3374 11.9519 23.9837 12.0609C29.4447 12.9862 33.5074 17.538 33.9046 22.9771C34.2754 28.0615 31.3722 33.0048 26.2751 35.0069C25.9433 35.1377 25.5932 35.2273 25.2672 35.3685C24.8975 35.5292 24.7081 35.9172 24.7885 36.2846C24.8791 36.6967 25.1466 36.9401 25.5565 36.9825C25.7321 37.0009 25.9238 36.9424 26.0995 36.8873C35.7873 33.8623 38.8708 21.518 31.7407 14.2846C31.5145 14.055 31.4858 13.8736 31.5788 13.5763L31.5776 13.5809ZM30.0485 12.7313C24.6909 9.30346 19.3516 9.30231 13.9618 12.7313C13.2833 10.5226 12.6118 8.33915 11.9149 6.06843C12.5257 6.35543 13.0503 6.6034 13.5761 6.85021C16.4518 8.19795 19.5479 7.17968 21.0736 4.38319C21.3721 3.8356 21.6717 3.28801 22.0069 2.67384C22.3444 3.29375 22.6429 3.84249 22.9413 4.39123C24.4555 7.16476 27.5379 8.18762 30.4044 6.86628C30.9359 6.62062 31.464 6.36806 32.0942 6.07073C31.3974 8.34145 30.7247 10.5307 30.0497 12.7325L30.0485 12.7313Z" fill="black"/>
<path d="M18.2874 30.819C19.417 30.4103 20.5398 29.9844 21.6751 29.5941C21.8806 29.5229 22.1538 29.5252 22.3593 29.5975C23.4671 29.981 24.5623 30.4 25.6632 30.8029C26.5805 31.1381 27.0902 30.7834 27.0684 29.8168C27.0408 28.6264 26.9891 27.4359 26.9788 26.2454C26.9765 26.0124 27.0638 25.7369 27.2038 25.5498C27.9075 24.6084 28.6434 23.6923 29.3643 22.7636C29.9222 22.045 29.7294 21.4308 28.8604 21.1667C27.7112 20.8178 26.5564 20.4894 25.4118 20.1244C25.2017 20.0578 24.9836 19.8959 24.855 19.7157C24.1662 18.7468 23.5062 17.7561 22.8323 16.7768C22.3249 16.0387 21.6889 16.0352 21.1861 16.7665C20.5042 17.7584 19.8349 18.7594 19.1392 19.7409C19.0187 19.9108 18.812 20.0624 18.6146 20.1244C17.4563 20.4906 16.2888 20.8269 15.1236 21.1736C14.3085 21.4159 14.0961 22.045 14.6127 22.7142C15.2785 23.5764 15.9386 24.4442 16.6286 25.2857C16.9351 25.6588 17.105 26.025 17.0464 26.5278C16.989 27.0226 17.0338 27.53 17.0338 28.0328C17.0005 28.0328 16.9672 28.0328 16.9339 28.0328C16.9339 28.6355 16.9397 29.2371 16.9328 29.8398C16.9225 30.7547 17.4322 31.129 18.2874 30.819ZM16.6424 22.5191C17.6262 22.2252 18.5262 21.9416 19.4354 21.6914C19.8475 21.5777 20.1414 21.3631 20.3756 21.006C20.891 20.2174 21.4352 19.4482 22.0057 18.6159C22.5361 19.3897 23.0596 20.1014 23.5245 20.8499C23.8253 21.3344 24.2145 21.611 24.7609 21.7522C25.615 21.9726 26.4553 22.247 27.3703 22.5179C26.8101 23.2366 26.3084 23.9288 25.7539 24.5763C25.3567 25.0412 25.1903 25.5233 25.2304 26.1433C25.2867 27.0123 25.2442 27.8882 25.2442 28.802C24.5566 28.5529 23.8184 28.3348 23.1239 28.0214C22.3685 27.6804 21.674 27.6506 20.9094 28.0122C20.2183 28.3394 19.4721 28.5506 18.7765 28.8043C18.7765 27.8308 18.7558 26.8872 18.7856 25.9447C18.7994 25.5027 18.703 25.1411 18.4217 24.7955C17.8259 24.0666 17.2588 23.3135 16.6401 22.5202L16.6424 22.5191Z" fill="black"/>
<path d="M43.0437 17.7515C42.7453 16.8882 42.3699 16.049 41.9899 15.2156C41.7706 14.7346 41.2689 14.5853 40.835 14.8012C40.4011 15.017 40.253 15.4854 40.4631 15.9778C40.4963 16.0571 40.5354 16.134 40.5721 16.2109C42.4812 20.2323 42.7992 24.3857 41.5238 28.6424C41.2138 29.6779 40.7179 30.6594 40.2863 31.6559C40.129 32.0175 40.1014 32.347 40.3506 32.6638C40.5664 32.9382 40.8878 33.0759 41.1886 32.9416C41.4503 32.8257 41.7201 32.5926 41.8556 32.3412C43.3135 29.6377 43.9702 26.7287 44 23.8163C43.9885 21.6443 43.7061 19.6629 43.0437 17.7515Z" fill="black"/>
<path d="M39.9361 21.3527C39.7192 20.3345 39.4161 19.3323 39.1004 18.3393C38.9408 17.8387 38.4403 17.6505 37.988 17.8273C37.5632 17.9937 37.3623 18.4529 37.507 18.9328C37.5357 19.028 37.577 19.1199 37.6126 19.214C38.3048 21.0715 38.5517 22.9852 38.3473 24.9597C38.2153 26.2385 37.8985 27.4646 37.3899 28.6447C37.1695 29.1556 37.243 29.5493 37.5793 29.8157C38.0454 30.1842 38.6676 29.9913 38.9385 29.3829C39.7547 27.5495 40.1301 25.6232 40.1772 23.6154C40.1014 22.86 40.0923 22.092 39.935 21.3539L39.9361 21.3527Z" fill="black"/>
<path d="M5.85473 17.6998C5.4977 17.6929 5.23022 17.9088 5.06377 18.2876C3.98007 20.75 3.61386 23.325 4.00532 25.9768C4.16719 27.0731 4.51962 28.1442 4.83417 29.213C5.01211 29.8203 5.49082 30.0522 5.9833 29.8708C6.47808 29.6882 6.65258 29.2141 6.4402 28.6241C6.39658 28.5024 6.34377 28.3853 6.30129 28.2636C5.54362 26.0905 5.34502 23.8691 5.82718 21.6168C6.02004 20.7121 6.35295 19.8374 6.64684 18.9569C6.86496 18.3048 6.54811 17.7274 5.85473 17.6998Z" fill="black"/>
<path d="M22.0344 35.807C21.5569 35.7886 21.1493 36.1813 21.1482 36.6623C21.147 37.118 21.5362 37.5106 21.9954 37.5175C22.4558 37.5244 22.8438 37.1479 22.8552 36.6806C22.8667 36.2122 22.504 35.8254 22.0344 35.807Z" fill="black"/>
</svg>
