<svg width="18" height="18" viewBox="0 0 18 18" fill="none" xmlns="http://www.w3.org/2000/svg">
<path d="M11.1766 3.14108C10.7482 3.06193 10.3547 3.33534 10.2732 3.75356C10.1916 4.17177 10.4659 4.58009 10.8826 4.66193C12.1375 4.90656 13.1064 5.8779 13.352 7.13703C13.4219 7.49948 13.741 7.7639 14.1085 7.7639C14.1578 7.7639 14.2071 7.7594 14.2573 7.75041C14.674 7.66677 14.9483 7.25935 14.8667 6.84024C14.5002 4.95963 13.0526 3.50712 11.1766 3.14108Z" fill="#475467"/>
<path d="M11.1209 0.00713679C10.9201 -0.0216434 10.7184 0.0377158 10.558 0.165428C10.393 0.294939 10.29 0.482011 10.2676 0.691567C10.2201 1.11518 10.5257 1.49831 10.9488 1.54598C13.8663 1.87156 16.1339 4.1443 16.462 7.07089C16.5059 7.46302 16.8348 7.75891 17.2274 7.75891C17.257 7.75891 17.2857 7.75711 17.3153 7.75352C17.5205 7.73103 17.7034 7.6294 17.8324 7.46751C17.9606 7.30562 18.0189 7.10416 17.9956 6.8982C17.5868 3.24671 14.7608 0.412758 11.1209 0.00713679Z" fill="#475467"/>
<path fill-rule="evenodd" clip-rule="evenodd" d="M8.12857 9.87505C11.7187 13.4642 12.5332 9.31195 14.8191 11.5962C17.0228 13.7994 18.2895 14.2408 15.4973 17.0322C15.1476 17.3132 12.9255 20.6947 5.11614 12.8876C-2.69413 5.0795 0.685426 2.8551 0.966573 2.50546C3.76548 -0.293637 4.19928 0.980347 6.40304 3.1835C8.68893 5.46875 4.53839 6.28588 8.12857 9.87505Z" fill="#475467"/>
</svg>
