<svg width="80" height="80" viewBox="0 0 80 80" fill="none" xmlns="http://www.w3.org/2000/svg">
<g clip-path="url(#clip0_150_329)">
<path d="M39.9718 79.9436C62.0476 79.9436 79.9436 62.0476 79.9436 39.9718C79.9436 17.896 62.0476 0 39.9718 0C17.896 0 0 17.896 0 39.9718C0 62.0476 17.896 79.9436 39.9718 79.9436Z" fill="#7D2AE7"/>
<path d="M39.9718 79.9436C62.0476 79.9436 79.9436 62.0476 79.9436 39.9718C79.9436 17.896 62.0476 0 39.9718 0C17.896 0 0 17.896 0 39.9718C0 62.0476 17.896 79.9436 39.9718 79.9436Z" fill="url(#paint0_radial_150_329)"/>
<path d="M39.9718 79.9436C62.0476 79.9436 79.9436 62.0476 79.9436 39.9718C79.9436 17.896 62.0476 0 39.9718 0C17.896 0 0 17.896 0 39.9718C0 62.0476 17.896 79.9436 39.9718 79.9436Z" fill="url(#paint1_radial_150_329)"/>
<path d="M39.9718 79.9436C62.0476 79.9436 79.9436 62.0476 79.9436 39.9718C79.9436 17.896 62.0476 0 39.9718 0C17.896 0 0 17.896 0 39.9718C0 62.0476 17.896 79.9436 39.9718 79.9436Z" fill="url(#paint2_radial_150_329)"/>
<path d="M39.9718 79.9436C62.0476 79.9436 79.9436 62.0476 79.9436 39.9718C79.9436 17.896 62.0476 0 39.9718 0C17.896 0 0 17.896 0 39.9718C0 62.0476 17.896 79.9436 39.9718 79.9436Z" fill="url(#paint3_radial_150_329)"/>
<path d="M70.3536 43.5976C70.2488 43.5976 70.1534 43.6653 70.1041 43.807C69.4725 45.6095 68.6191 46.6817 67.9166 46.6817C67.5129 46.6817 67.3496 46.2319 67.3496 45.5264C67.3496 43.761 68.4063 40.0174 68.9394 38.3106C69.0011 38.104 69.0411 37.9193 69.0411 37.7621C69.0411 37.2661 68.77 37.0226 68.0983 37.0226C67.3742 37.0226 66.5948 37.3061 65.8369 38.6341C65.575 37.4632 64.7832 36.9517 63.677 36.9517C62.3983 36.9517 61.1629 37.7744 60.1462 39.1086C59.1295 40.4426 57.9339 40.8803 57.0344 40.6645C57.6813 39.0807 57.9216 37.8976 57.9216 37.0196C57.9216 35.6423 57.2407 34.8105 56.1408 34.8105C54.4678 34.8105 53.5035 36.4064 53.5035 38.0856C53.5035 39.3828 54.0918 40.7168 55.386 41.3639C54.3014 43.8163 52.7178 46.0347 52.117 46.0347C51.3407 46.0347 51.1125 42.2358 51.1556 39.5182C51.1833 37.9591 51.3128 37.8791 51.3128 37.4078C51.3128 37.1366 51.1372 36.9517 50.4317 36.9517C48.7863 36.9517 48.278 38.3445 48.201 39.9436C48.1761 40.5512 48.081 41.154 47.9175 41.7398C47.2304 44.1922 45.8131 46.0532 44.8889 46.0532C44.4605 46.0532 44.3435 45.6248 44.3435 45.0642C44.3435 43.2988 45.3325 41.0927 45.3325 39.2102C45.3325 37.8269 44.7255 36.9519 43.5826 36.9519C42.2361 36.9519 40.4553 38.554 38.77 41.5549C39.3244 39.2565 39.5526 37.0319 37.9103 37.0319C37.554 37.0372 37.2042 37.1281 36.8904 37.2969C36.7852 37.3464 36.6973 37.4262 36.638 37.5262C36.5787 37.6261 36.5507 37.7416 36.5577 37.8576C36.7148 40.304 34.5859 46.5708 32.5677 46.5708C32.2011 46.5708 32.0224 46.1733 32.0224 45.5325C32.0224 43.764 33.0761 40.0297 33.606 38.3198C33.6737 38.0979 33.7109 37.9069 33.7109 37.7406C33.7109 37.2722 33.4211 37.0319 32.7649 37.0319C32.044 37.0319 31.2614 37.3061 30.5066 38.6341C30.2416 37.4632 29.4498 36.9517 28.3437 36.9517C26.529 36.9517 24.5016 38.8714 23.6112 41.3732C22.4188 44.713 20.0156 47.9388 16.7805 47.9388C13.8443 47.9388 12.2945 45.4955 12.2945 41.6349C12.2945 36.0614 16.3862 31.5077 19.421 31.5077C20.8722 31.5077 21.5654 32.4319 21.5654 33.8492C21.5654 35.5653 20.6071 36.3632 20.6071 37.0165C20.6071 37.2168 20.7736 37.414 21.1032 37.414C22.4219 37.414 23.9747 35.8642 23.9747 33.7506C23.9747 31.6369 22.2586 30.0903 19.2238 30.0903C14.2079 30.0903 9.16113 35.1371 9.16113 41.6042C9.16113 46.7495 11.6999 49.8521 16.0903 49.8521C19.0851 49.8521 21.701 47.5229 23.112 44.8053C23.2723 47.0576 24.2951 48.2346 25.8542 48.2346C27.2407 48.2346 28.3621 47.4089 29.2186 45.9577C29.5484 47.4766 30.4233 48.2191 31.5603 48.2191C32.8635 48.2191 33.9542 47.3935 34.9925 45.8591C34.9772 47.0639 35.2514 48.1977 36.2958 48.1977C36.7887 48.1977 37.3772 48.0836 37.4821 47.6522C38.5819 43.1047 41.2994 39.3919 42.1314 39.3919C42.3778 39.3919 42.4455 39.6292 42.4455 39.9095C42.4455 41.1451 41.5736 43.6777 41.5736 45.2954C41.5736 47.0421 42.3163 48.1977 43.8506 48.1977C45.5514 48.1977 47.2797 46.1147 48.432 43.0708C48.7926 45.9146 49.5722 48.2099 50.7922 48.2099C52.2895 48.2099 54.9484 45.058 56.5599 41.7212C57.1914 41.8014 58.1403 41.7798 59.0523 41.1358C58.6641 42.1187 58.4363 43.1941 58.4363 44.2692C58.4363 47.3658 59.915 48.2346 61.1874 48.2346C62.5709 48.2346 63.6925 47.4089 64.552 45.9577C64.8355 47.2672 65.5596 48.216 66.8906 48.216C68.9733 48.216 70.7819 46.087 70.7819 44.3401C70.7819 43.878 70.5848 43.5976 70.3536 43.5976ZM27.1237 46.5184C26.2824 46.5184 25.9528 45.6711 25.9528 44.408C25.9528 42.2143 27.4533 38.5508 29.04 38.5508C29.7333 38.5508 29.9951 39.3673 29.9951 40.3656C29.9951 42.5932 28.5687 46.5184 27.1237 46.5184ZM55.9344 39.9713C55.4322 39.3735 55.2504 38.5601 55.2504 37.836C55.2504 36.9426 55.577 36.1877 55.9682 36.1877C56.3596 36.1877 56.4797 36.5729 56.4797 37.1089C56.4797 38.0054 56.1592 39.3149 55.9344 39.9713ZM62.4569 46.5184C61.6159 46.5184 61.2862 45.5448 61.2862 44.408C61.2862 42.2913 62.7866 38.5508 64.3857 38.5508C65.0789 38.5508 65.3254 39.3612 65.3254 40.3656C65.3254 42.5932 63.9235 46.5184 62.4569 46.5184Z" fill="white"/>
</g>
<defs>
<radialGradient id="paint0_radial_150_329" cx="0" cy="0" r="1" gradientUnits="userSpaceOnUse" gradientTransform="translate(15.4188 70.8557) rotate(-49.416) scale(61.8297)">
<stop stop-color="#6420FF"/>
<stop offset="1" stop-color="#6420FF" stop-opacity="0"/>
</radialGradient>
<radialGradient id="paint1_radial_150_329" cx="0" cy="0" r="1" gradientUnits="userSpaceOnUse" gradientTransform="translate(21.1639 9.08814) rotate(54.703) scale(69.7244)">
<stop stop-color="#00C4CC"/>
<stop offset="1" stop-color="#00C4CC" stop-opacity="0"/>
</radialGradient>
<radialGradient id="paint2_radial_150_329" cx="0" cy="0" r="1" gradientUnits="userSpaceOnUse" gradientTransform="translate(15.4417 70.8553) rotate(-45.1954) scale(61.0811 28.092)">
<stop stop-color="#6420FF"/>
<stop offset="1" stop-color="#6420FF" stop-opacity="0"/>
</radialGradient>
<radialGradient id="paint3_radial_150_329" cx="0" cy="0" r="1" gradientUnits="userSpaceOnUse" gradientTransform="translate(32.6927 10.7713) rotate(66.5198) scale(62.9392 105.437)">
<stop stop-color="#00C4CC"/>
<stop offset="1" stop-color="#00C4CC" stop-opacity="0"/>
</radialGradient>
<clipPath id="clip0_150_329">
<rect width="80" height="80" fill="white"/>
</clipPath>
</defs>
</svg>
