<svg width="80" height="67" viewBox="0 0 80 67" fill="none" xmlns="http://www.w3.org/2000/svg">
<g filter="url(#filter0_d_112_325)">
<path d="M63.963 32.286C63.963 31.5478 63.963 30.7601 63.8146 29.9744C63.0269 25.547 59.7316 22.2499 55.3021 21.4619C57.2694 20.4287 58.5499 18.3625 58.5499 16.0983C58.5004 12.704 55.8444 10.0459 52.5472 10.0459C49.2024 10.0459 46.4477 12.7515 46.398 16.0486C46.398 17.5745 46.9878 19.0985 48.0209 20.2305C47.1837 19.7872 46.495 19.1974 45.9547 18.5086C44.5772 16.7867 43.9379 14.77 43.3462 12.8503L43.2967 12.6049C42.8039 11.079 41.6243 10.0954 40.1479 10.0459H39.9995C38.5231 10.0459 37.3435 11.0295 36.8507 12.6049L36.5101 13.4915C36.2152 14.2792 35.9203 15.1144 35.6254 15.9021C34.7407 17.9684 33.6087 19.3458 32.0333 20.2324C33.0664 19.1498 33.6562 17.7229 33.6562 16.1989C33.6562 12.6563 31.0002 10 27.5069 10C24.1621 10 21.4546 12.755 21.4546 16.0996C21.4546 18.4112 22.7332 20.4775 24.8489 21.5601C20.0771 22.3459 16.6827 25.8391 16.1426 30.5139C15.9466 31.9408 15.9941 33.4173 16.0436 34.8442V36.3701C16.0436 38.1414 17.3717 39.5189 19.1924 39.6179H19.3408C19.9306 39.6179 20.4729 39.4695 20.9637 39.1251V40.651C20.9637 42.1769 21.8009 43.0122 23.3249 43.0122H32.5261C34.149 43.0122 34.8873 42.2245 34.8873 40.651V26.1339C36.6586 25.2492 38.2321 23.9193 39.5125 22.2469C39.6609 22.0014 39.8569 21.7541 40.0053 21.5581C41.4323 23.6243 43.1047 25.1007 45.0718 26.1339V40.8448C45.0718 42.3212 45.8595 43.107 47.334 43.107H56.6321C58.2551 43.107 58.9933 42.3193 58.9933 40.7458V39.2694C59.4366 39.5643 60.0264 39.7127 60.6162 39.7127C62.534 39.7127 63.9134 38.3353 63.9134 36.4155L63.9629 33.4151C64.0124 33.0231 64.0124 32.6788 63.9629 32.2849L63.963 32.286ZM27.5566 20.6251C26.3275 20.6251 25.146 20.1818 24.2593 19.2971C23.3746 18.4124 22.8819 17.2308 22.8819 15.9999C22.8819 13.3914 24.8986 11.3251 27.5071 11.3251C30.2621 11.3251 32.2294 13.3419 32.2294 16.0969C32.1799 18.5589 30.0661 20.6251 27.5566 20.6251ZM33.4111 25.939V40.6008C33.4111 41.3885 33.2627 41.535 32.4769 41.535H23.2757C22.5375 41.535 22.3415 41.339 22.3415 40.6008V32.2368C22.3415 32.0884 22.3415 31.843 22.292 31.6965C22.1931 31.4016 21.9971 31.0572 21.6033 31.0572C21.16 31.0572 20.9145 31.3521 20.9145 31.8449V35.1421C20.9145 35.5854 20.9145 36.0268 20.865 36.4207C20.7661 37.4519 20.1763 38.0912 19.2916 38.0912H19.1926C18.11 37.9922 17.4213 37.3035 17.4213 36.2704V34.6969C17.3718 33.3688 17.3718 31.9419 17.5202 30.6139C18.013 26.4814 20.964 23.4808 25.2447 22.7428C25.9829 22.5944 26.7211 22.5469 27.4593 22.5469C27.6553 22.5469 27.8532 22.5469 28.0491 22.4974C29.672 22.4479 31.099 22.1036 32.427 21.5138C34.3944 20.5301 35.8708 18.8577 36.9534 16.3484C37.2977 15.5607 37.5927 14.7255 37.8381 13.8883C37.937 13.544 38.0341 13.249 38.1825 12.9047C38.5268 11.9211 39.1661 11.3788 39.9538 11.3788H40.0527C40.9869 11.4283 41.5786 11.9686 41.8735 12.9523C41.5786 15.2145 40.8899 17.2826 39.8568 19.0518C39.6113 19.3962 39.364 19.79 39.1186 20.1344C38.8731 20.5283 38.6258 20.9221 38.3309 21.2665C37.2483 22.7924 35.8708 23.9225 34.1984 24.7102C33.6067 24.9557 33.4107 25.3 33.4107 25.9393L33.4111 25.939ZM59.0431 31.8428C58.9937 31.4984 58.6988 31.154 58.1584 31.154C57.7646 31.154 57.5686 31.5479 57.5686 31.9417V40.6004C57.5686 41.388 57.4202 41.5346 56.6344 41.5346H47.384C46.6952 41.5346 46.5468 41.3861 46.5468 40.6974V25.8895C46.5468 25.4957 46.4974 25.0523 45.957 24.8564C43.8908 23.8233 42.169 22.2479 40.8409 20.1341C41.678 18.8061 42.2678 17.2802 42.7111 15.7067C43.3009 17.1832 43.9402 18.3152 44.6784 19.2989C46.1054 21.1197 48.0232 22.1528 50.533 22.4477C51.1228 22.4972 51.7145 22.5466 52.2549 22.5961C53.0426 22.6456 53.7808 22.695 54.5171 22.7921C58.5506 23.3818 61.5528 26.2358 62.2415 30.1721C62.3404 30.8609 62.3404 31.5496 62.3404 32.2879C62.3404 32.6322 62.3404 33.0261 62.3899 33.3705C62.4394 34.3541 62.4394 35.3378 62.4394 36.2738C62.4394 37.3564 61.7012 38.1441 60.5691 38.1441C59.5855 38.1441 58.9462 37.4059 58.9462 36.2262V32.4382C59.0927 32.2365 59.0926 32.0407 59.0431 31.8428ZM47.8274 16.0019C47.8769 13.4429 49.9431 11.4261 52.5497 11.4261C55.0592 11.4261 57.076 13.4429 57.1254 16.0513C57.1254 18.6598 55.0592 20.6766 52.4507 20.6766C51.2692 20.6766 50.139 20.2333 49.2524 19.3486C48.3677 18.462 47.8274 17.2309 47.8274 16.0019Z" fill="white"/>
</g>
<defs>
<filter id="filter0_d_112_325" x="-4" y="0" width="88" height="73.1069" filterUnits="userSpaceOnUse" color-interpolation-filters="sRGB">
<feFlood flood-opacity="0" result="BackgroundImageFix"/>
<feColorMatrix in="SourceAlpha" type="matrix" values="0 0 0 0 0 0 0 0 0 0 0 0 0 0 0 0 0 0 127 0" result="hardAlpha"/>
<feOffset dy="10"/>
<feGaussianBlur stdDeviation="10"/>
<feComposite in2="hardAlpha" operator="out"/>
<feColorMatrix type="matrix" values="0 0 0 0 1 0 0 0 0 1 0 0 0 0 1 0 0 0 0.4 0"/>
<feBlend mode="color-dodge" in2="BackgroundImageFix" result="effect1_dropShadow_112_325"/>
<feBlend mode="normal" in="SourceGraphic" in2="effect1_dropShadow_112_325" result="shape"/>
</filter>
</defs>
</svg>
