<svg width="44" height="44" viewBox="0 0 44 44" fill="none" xmlns="http://www.w3.org/2000/svg">
<path d="M40.8848 44H3.11523C1.39734 44 0 42.6027 0 40.8848V3.11523C0 1.39734 1.39734 0 3.11523 0H40.8848C42.6027 0 44 1.39734 44 3.11523V40.8848C44 42.6027 42.6027 44 40.8848 44ZM3.11523 1.76C2.36758 1.76 1.76 2.36758 1.76 3.11523V40.8848C1.76 41.6324 2.36758 42.24 3.11523 42.24H40.8848C41.6324 42.24 42.24 41.6324 42.24 40.8848V3.11523C42.24 2.36758 41.6324 1.76 40.8848 1.76H3.11523Z" fill="black"/>
<path d="M40.8848 44H3.11523C1.39734 44 0 42.6027 0 40.8848V9.81148C0 9.32508 0.393594 8.93148 0.88 8.93148H43.12C43.6064 8.93148 44 9.32508 44 9.81148V40.8848C44 42.6027 42.6027 44 40.8848 44ZM1.76 10.6915V40.8848C1.76 41.6324 2.36758 42.24 3.11523 42.24H40.8848C41.6324 42.24 42.24 41.6324 42.24 40.8848V10.6915H1.76Z" fill="black"/>
<path d="M35.9262 7.98617C34.4704 7.98617 33.2862 6.80195 33.2862 5.34617C33.2862 3.89039 34.4704 2.70617 35.9262 2.70617C37.382 2.70617 38.5662 3.89039 38.5662 5.34617C38.5662 6.80195 37.382 7.98617 35.9262 7.98617ZM35.9262 4.46617C35.4406 4.46617 35.0462 4.86062 35.0462 5.34617C35.0462 5.83172 35.4406 6.22617 35.9262 6.22617C36.4117 6.22617 36.8062 5.83172 36.8062 5.34617C36.8062 4.86062 36.4117 4.46617 35.9262 4.46617Z" fill="black"/>
<path d="M27.512 7.98617C26.0562 7.98617 24.872 6.80195 24.872 5.34617C24.872 3.89039 26.0562 2.70617 27.512 2.70617C28.9678 2.70617 30.152 3.89039 30.152 5.34617C30.152 6.80195 28.9678 7.98617 27.512 7.98617ZM27.512 4.46617C27.0265 4.46617 26.632 4.86062 26.632 5.34617C26.632 5.83172 27.0265 6.22617 27.512 6.22617C27.9976 6.22617 28.392 5.83172 28.392 5.34617C28.392 4.86062 27.9976 4.46617 27.512 4.46617Z" fill="black"/>
<path d="M24.3143 33.1762H13.8248C13.4527 33.1762 13.1209 32.9424 12.9963 32.5918L9.69633 23.3518C9.60008 23.0828 9.64047 22.7829 9.80547 22.5491C9.97047 22.3154 10.2386 22.1762 10.5248 22.1762H28.4324C28.7306 22.1762 29.0082 22.3274 29.1706 22.5766C29.333 22.8267 29.3571 23.1421 29.2359 23.4145L25.1178 32.6545C24.9769 32.9716 24.6615 33.1762 24.3143 33.1762ZM14.4452 31.4162H23.7428L27.0772 23.9362H11.7734L14.4452 31.4162Z" fill="black"/>
<path d="M28.4316 23.9362C28.3121 23.9362 28.1901 23.9112 28.0732 23.8597C27.6298 23.6612 27.4304 23.1404 27.6289 22.697L28.7117 20.277C28.8535 19.9598 29.168 19.7562 29.5152 19.7562H33.4752C33.9616 19.7562 34.3552 20.1498 34.3552 20.6362C34.3552 21.1226 33.9616 21.5162 33.4752 21.5162H30.0859L29.2359 23.4145C29.0898 23.742 28.7684 23.9362 28.4316 23.9362Z" fill="black"/>
<path d="M16.5773 36.96H14.8173C14.3309 36.96 13.9373 36.5664 13.9373 36.08C13.9373 35.5936 14.3309 35.2 14.8173 35.2H16.5773C17.0637 35.2 17.4573 35.5936 17.4573 36.08C17.4573 36.5664 17.0637 36.96 16.5773 36.96Z" fill="black"/>
<path d="M23.6173 36.96H21.8573C21.3709 36.96 20.9773 36.5664 20.9773 36.08C20.9773 35.5936 21.3709 35.2 21.8573 35.2H23.6173C24.1038 35.2 24.4973 35.5936 24.4973 36.08C24.4973 36.5664 24.1038 36.96 23.6173 36.96Z" fill="black"/>
</svg>
