<svg width="48" height="45" viewBox="0 0 48 45" fill="none" xmlns="http://www.w3.org/2000/svg">
<g clip-path="url(#clip0_112_373)">
<path d="M26.851 12.065C29.7391 17.06 32.6157 22.0367 35.5067 27.0374C36.7679 26.545 38.0397 26.3031 39.3681 26.3405C43.6633 26.4605 47.5218 30.0407 47.949 34.3224C48.4481 39.3145 45.3181 43.4264 40.3769 44.2701C36.958 44.8537 33.2233 43.0751 31.4265 40.0065C31.0541 39.3702 31.1232 38.8212 31.6137 38.515C32.1108 38.2049 32.6215 38.3844 33.0284 39.0112C35.0479 42.121 38.8354 43.2335 42.0777 41.668C45.5763 39.9797 47.0544 35.8035 45.3939 32.2953C43.7344 28.789 39.5658 27.2888 36.0413 28.9263C35.811 29.0328 35.5797 29.1432 35.3387 29.219C34.7801 29.3947 34.3338 29.1557 34.1217 28.6115C34.0027 28.3043 33.8769 27.9962 33.7138 27.7121C31.0003 22.9984 28.2744 18.2914 25.5696 13.5719C25.3316 13.1573 25.1175 13.0076 24.6146 13.1035C22.4473 13.5192 20.2435 11.9287 19.8702 9.72783C19.4814 7.43577 20.9711 5.30687 23.268 4.87207C25.4448 4.4603 27.6832 6.00082 28.0815 8.17675C28.357 9.67984 27.8962 10.9535 26.851 12.0641V12.065ZM23.9754 6.60168C22.6844 6.5988 21.6286 7.64885 21.6199 8.94269C21.6113 10.2317 22.6709 11.2991 23.9581 11.2991C25.2519 11.2991 26.3106 10.2481 26.3145 8.95901C26.3193 7.669 25.2625 6.60552 23.9754 6.60264V6.60168Z" fill="black"/>
<path d="M11.7117 32.0755C12.9998 33.3923 13.4788 34.8868 12.9125 36.625C12.2214 38.7482 9.9514 39.946 7.79371 39.3586C5.61874 38.7664 4.29514 36.5502 4.79713 34.3397C5.29432 32.1455 7.3973 30.7336 9.60874 31.1281C9.9226 31.1838 10.0963 31.1377 10.2672 30.8402C13.0315 26.0209 15.8083 21.2083 18.5822 16.3948C18.6196 16.3295 18.6455 16.2575 18.6916 16.1577C17.6108 15.3399 16.7086 14.3647 16.1058 13.1553C14.4319 9.79691 14.6286 6.51718 16.9025 3.54459C19.208 0.527855 22.3917 -0.593224 26.0775 0.296536C29.7171 1.17574 31.942 3.61946 32.7329 7.27832C33.1831 9.36115 32.8058 11.3653 31.7951 13.2417C31.4592 13.8647 30.9639 14.0672 30.4533 13.8099C29.9206 13.5402 29.8102 13.0123 30.1481 12.3452C32.6187 7.47125 29.3217 1.90329 23.9639 1.90137C20.856 1.90137 18.1032 3.95924 17.2087 6.95198C16.3256 9.90729 17.4956 13.1189 20.0805 14.8322C21.0643 15.4839 21.1267 15.7546 20.5287 16.7892C17.702 21.6853 14.8744 26.5814 12.0477 31.4775C11.9402 31.6627 11.8375 31.8509 11.7127 32.0745L11.7117 32.0755ZM8.91766 37.6252C10.2038 37.6338 11.2731 36.5723 11.2731 35.2861C11.2731 33.9922 10.2249 32.9355 8.93398 32.9287C7.64685 32.922 6.58144 33.9788 6.57761 35.2678C6.57377 36.5579 7.62478 37.6165 8.91766 37.6252Z" fill="black"/>
<path d="M34.8495 34.3368C35.7805 31.9267 37.5764 30.7317 39.6486 31.0964C41.7324 31.464 43.2134 33.1572 43.2393 35.2035C43.2653 37.2556 41.8581 39.0025 39.8492 39.4133C37.6407 39.8645 35.8871 38.7549 34.8572 36.2478H17.9076C17.6302 37.1481 17.443 38.035 17.0898 38.8509C15.5301 42.455 11.6677 44.6684 7.93977 44.151C3.71269 43.5636 0.659483 40.5728 0.0845463 36.4561C-0.648762 31.2059 3.51401 26.3453 8.74027 26.3491C9.42462 26.3491 9.85559 26.7062 9.86135 27.2763C9.8671 27.8436 9.45342 28.1997 8.75754 28.2285C8.73835 28.2285 8.71819 28.2285 8.69899 28.2294C5.53061 28.3398 2.8882 30.4524 2.07907 33.5229C1.05781 37.3996 3.58312 41.4319 7.50881 42.194C11.541 42.9762 15.3794 40.2205 15.8804 36.1835C15.9044 35.9896 15.9351 35.7957 15.9495 35.5999C16.0273 34.5384 16.2442 34.3368 17.3326 34.3368C22.9524 34.3368 28.5722 34.3368 34.191 34.3368H34.8514H34.8495ZM39.0401 32.9278C37.751 32.9067 36.6732 33.9558 36.6616 35.2419C36.6501 36.5387 37.6906 37.6079 38.9767 37.6223C40.2706 37.6367 41.3408 36.5962 41.3562 35.3072C41.3715 34.0162 40.332 32.9479 39.0401 32.9278Z" fill="black"/>
</g>
<defs>
<clipPath id="clip0_112_373">
<rect width="48" height="44.3805" fill="white"/>
</clipPath>
</defs>
</svg>
