<svg width="77" height="72" viewBox="0 0 77 72" fill="none" xmlns="http://www.w3.org/2000/svg">
<g filter="url(#filter0_d_112_340)">
<path d="M38.5016 25.5237C35.4587 25.5237 32.9935 27.997 32.9935 31.0318C32.9935 34.0666 35.4668 36.5399 38.5016 36.5399C41.5363 36.5399 44.0097 34.0666 44.0097 31.0318C44.0097 27.997 41.5363 25.5237 38.5016 25.5237ZM38.5016 34.9208C36.3618 34.9208 34.6207 33.1797 34.6207 31.0399C34.6207 28.9002 36.3618 27.159 38.5016 27.159C40.6414 27.159 42.3825 28.9002 42.3825 31.0399C42.3825 33.1797 40.6414 34.9208 38.5016 34.9208Z" fill="white"/>
<path d="M41.2108 37.6058H35.7922C32.1717 37.6058 29.0881 40.3151 28.6162 43.9031L27.4202 53.0806C27.3632 53.5281 27.6724 53.9349 28.1199 53.9919C28.5592 54.0488 28.9742 53.7396 29.0311 53.2922L30.2271 44.1147C30.5933 41.3321 32.9853 39.233 35.7922 39.233H41.2108C44.0178 39.233 46.4098 41.3321 46.7759 44.1147L47.9719 53.2922C48.0288 53.699 48.3787 54 48.7774 54C48.8099 54 48.8506 54 48.8831 54C49.3306 53.943 49.6398 53.5362 49.5828 53.0888L48.3868 43.9113C47.9149 40.3233 44.8314 37.614 41.2108 37.614V37.6058Z" fill="white"/>
<path d="M33.3597 43.6183C32.9204 43.5613 32.5054 43.8705 32.4485 44.318L31.2769 53.0805C31.2199 53.528 31.5291 53.9348 31.9766 53.9918C32.0091 53.9918 32.0498 53.9918 32.0823 53.9918C32.481 53.9918 32.8309 53.6907 32.8878 53.2839L34.0594 44.5214C34.1164 44.0739 33.8072 43.6671 33.3597 43.6101V43.6183Z" fill="white"/>
<path d="M43.6436 43.6183C43.1961 43.6752 42.8869 44.0902 42.9439 44.5295L44.1155 53.2921C44.1724 53.6989 44.5223 53.9999 44.9209 53.9999C44.9535 53.9999 44.9942 53.9999 45.0267 53.9999C45.4742 53.943 45.7834 53.528 45.7264 53.0887L44.5548 44.3261C44.4979 43.8786 44.0829 43.5695 43.6436 43.6264V43.6183Z" fill="white"/>
<path d="M34.3195 19.1043L33.6117 23.2374C33.5629 23.5466 33.6849 23.8476 33.9371 24.0347C34.1893 24.2137 34.5229 24.2381 34.7914 24.0998L38.5096 22.1472L42.2278 24.0998C42.3498 24.1649 42.48 24.1893 42.6102 24.1893C42.781 24.1893 42.9437 24.1405 43.0902 24.0347C43.3424 23.8557 43.4645 23.5466 43.4156 23.2374L42.7078 19.1043L45.71 16.1753C45.9297 15.9556 46.011 15.6383 45.9134 15.3373C45.8158 15.0444 45.5636 14.8247 45.2544 14.784L41.105 14.1819L39.25 10.4149C38.9733 9.86169 38.0621 9.86169 37.7936 10.4149L35.9386 14.1819L31.7892 14.784C31.48 14.8247 31.2278 15.0444 31.1302 15.3373C31.0325 15.6302 31.1139 15.9556 31.3336 16.1753L34.3358 19.1043H34.3195ZM36.5732 15.7359C36.8417 15.6952 37.0695 15.5325 37.1834 15.2884L38.5014 12.6198L39.8195 15.2884C39.9415 15.5325 40.1693 15.6952 40.4297 15.7359L43.375 16.1671L41.2433 18.2418C41.048 18.429 40.9667 18.6975 41.0074 18.9659L41.5118 21.8949L38.8757 20.5118C38.7537 20.4467 38.6235 20.4223 38.4933 20.4223C38.3631 20.4223 38.233 20.4548 38.1109 20.5118L35.4748 21.8949L35.9793 18.9659C36.0281 18.7056 35.9386 18.429 35.7433 18.2418L33.6117 16.1671L36.5569 15.7359H36.5732Z" fill="white"/>
<path d="M28.9335 28.7782C29.1044 28.7782 29.2671 28.7294 29.4136 28.6236C29.6658 28.4446 29.7878 28.1354 29.739 27.8263L29.2183 24.7996L31.415 22.6599C31.6347 22.4402 31.7161 22.1229 31.6184 21.8218C31.5208 21.5289 31.2686 21.3093 30.9594 21.2686L27.9165 20.8292L26.5578 18.0793C26.2812 17.526 25.3699 17.526 25.1014 18.0793L23.7427 20.8292L20.6998 21.2686C20.3907 21.3093 20.1384 21.5289 20.0408 21.8218C19.9432 22.1147 20.0245 22.4402 20.2442 22.6599L22.4409 24.7996L21.9202 27.8263C21.8714 28.1354 21.9935 28.4365 22.2457 28.6236C22.4979 28.8026 22.8315 28.827 23.1 28.6887L25.8174 27.2567L28.5349 28.6887C28.6569 28.7538 28.7871 28.7782 28.9173 28.7782H28.9335ZM26.2161 25.6132C26.094 25.5482 25.9639 25.5238 25.8337 25.5238C25.7035 25.5238 25.5733 25.5563 25.4513 25.6132L23.8159 26.4757L24.1251 24.6532C24.1739 24.3928 24.0844 24.1162 23.8892 23.9291L22.563 22.6354L24.3936 22.367C24.6621 22.3263 24.8899 22.1636 25.0038 21.9195L25.8256 20.2597L26.6473 21.9195C26.7693 22.1636 26.9971 22.3263 27.2575 22.367L29.0881 22.6354L27.7619 23.9291C27.5667 24.1162 27.4853 24.3847 27.526 24.6532L27.8352 26.4757L26.1998 25.6132H26.2161Z" fill="white"/>
<path d="M56.9543 21.8218C56.8566 21.5289 56.6044 21.3093 56.2952 21.2686L53.2523 20.8292L51.8936 18.0793C51.617 17.526 50.7058 17.526 50.4373 18.0793L49.0785 20.8292L46.0357 21.2686C45.7265 21.3093 45.4743 21.5289 45.3766 21.8218C45.279 22.1147 45.3604 22.4402 45.58 22.6599L47.7768 24.7996L47.2561 27.8263C47.2072 28.1354 47.3293 28.4365 47.5815 28.6236C47.8337 28.8026 48.1673 28.827 48.4358 28.6887L51.1532 27.2567L53.8707 28.6887C53.9927 28.7538 54.1229 28.7782 54.2531 28.7782C54.4239 28.7782 54.5867 28.7294 54.7331 28.6236C54.9853 28.4446 55.1074 28.1354 55.0586 27.8263L54.5378 24.7996L56.7346 22.6599C56.9543 22.4402 57.0356 22.1229 56.938 21.8218H56.9543ZM53.1059 23.9291C52.9106 24.1162 52.8293 24.3847 52.8699 24.6532L53.1791 26.4757L51.5438 25.6132C51.3078 25.4912 51.0231 25.4912 50.7871 25.6132L49.1518 26.4757L49.4609 24.6532C49.5098 24.3928 49.4203 24.1162 49.225 23.9291L47.8988 22.6354L49.7294 22.367C49.9979 22.3263 50.2257 22.1636 50.3396 21.9195L51.1614 20.2597L51.9831 21.9195C52.1052 22.1636 52.333 22.3263 52.5933 22.367L54.4239 22.6354L53.0978 23.9291H53.1059Z" fill="white"/>
</g>
<defs>
<filter id="filter0_d_112_340" x="0" y="0" width="76.979" height="84" filterUnits="userSpaceOnUse" color-interpolation-filters="sRGB">
<feFlood flood-opacity="0" result="BackgroundImageFix"/>
<feColorMatrix in="SourceAlpha" type="matrix" values="0 0 0 0 0 0 0 0 0 0 0 0 0 0 0 0 0 0 127 0" result="hardAlpha"/>
<feOffset dy="10"/>
<feGaussianBlur stdDeviation="10"/>
<feComposite in2="hardAlpha" operator="out"/>
<feColorMatrix type="matrix" values="0 0 0 0 1 0 0 0 0 1 0 0 0 0 1 0 0 0 0.4 0"/>
<feBlend mode="color-dodge" in2="BackgroundImageFix" result="effect1_dropShadow_112_340"/>
<feBlend mode="normal" in="SourceGraphic" in2="effect1_dropShadow_112_340" result="shape"/>
</filter>
</defs>
</svg>
