<svg width="80" height="80" viewBox="0 0 80 80" fill="none" xmlns="http://www.w3.org/2000/svg">
<g clip-path="url(#clip0_150_312)">
<path d="M26.6663 79.9999C34.0263 79.9999 39.9997 74.0266 39.9997 66.6666V53.3333H26.6663C19.3063 53.3333 13.333 59.3066 13.333 66.6666C13.333 74.0266 19.3063 79.9999 26.6663 79.9999Z" fill="#0ACF83"/>
<path d="M13.333 40.0001C13.333 32.6401 19.3063 26.6667 26.6663 26.6667H39.9997V53.3334H26.6663C19.3063 53.3334 13.333 47.3601 13.333 40.0001Z" fill="#A259FF"/>
<path d="M13.333 13.3333C13.333 5.97333 19.3063 0 26.6663 0H39.9997V26.6667H26.6663C19.3063 26.6667 13.333 20.6933 13.333 13.3333Z" fill="#F24E1E"/>
<path d="M40 0H53.3333C60.6933 0 66.6667 5.97333 66.6667 13.3333C66.6667 20.6933 60.6933 26.6667 53.3333 26.6667H40V0Z" fill="#FF7262"/>
<path d="M66.6667 40.0001C66.6667 47.3601 60.6933 53.3334 53.3333 53.3334C45.9733 53.3334 40 47.3601 40 40.0001C40 32.6401 45.9733 26.6667 53.3333 26.6667C60.6933 26.6667 66.6667 32.6401 66.6667 40.0001Z" fill="#1ABCFE"/>
</g>
<defs>
<clipPath id="clip0_150_312">
<rect width="80" height="80" fill="white"/>
</clipPath>
</defs>
</svg>
