<svg width="68" height="65" viewBox="0 0 68 65" fill="none" xmlns="http://www.w3.org/2000/svg">
<g filter="url(#filter0_d_150_151)">
<path d="M32.0979 11.8541C32.6966 10.0115 35.3034 10.0115 35.9021 11.8541L37.8167 17.7467C38.0845 18.5708 38.8524 19.1287 39.7189 19.1287H45.9147C47.8522 19.1287 48.6577 21.6079 47.0903 22.7467L42.0777 26.3885C41.3767 26.8978 41.0834 27.8006 41.3512 28.6246L43.2658 34.5172C43.8645 36.3598 41.7556 37.8921 40.1881 36.7533L35.1756 33.1115C34.4746 32.6022 33.5254 32.6022 32.8244 33.1115L27.8119 36.7533C26.2444 37.8921 24.1355 36.3598 24.7342 34.5172L26.6488 28.6246C26.9166 27.8006 26.6232 26.8978 25.9223 26.3885L20.9097 22.7467C19.3423 21.6079 20.1478 19.1287 22.0853 19.1287H28.2811C29.1476 19.1287 29.9155 18.5708 30.1833 17.7467L32.0979 11.8541Z" fill="#475467" fill-opacity="0.3" shape-rendering="crispEdges"/>
</g>
<defs>
<filter id="filter0_d_150_151" x="0.0810547" y="0.472168" width="67.8379" height="66.6721" filterUnits="userSpaceOnUse" color-interpolation-filters="sRGB">
<feFlood flood-opacity="0" result="BackgroundImageFix"/>
<feColorMatrix in="SourceAlpha" type="matrix" values="0 0 0 0 0 0 0 0 0 0 0 0 0 0 0 0 0 0 127 0" result="hardAlpha"/>
<feOffset dy="10"/>
<feGaussianBlur stdDeviation="10"/>
<feComposite in2="hardAlpha" operator="out"/>
<feColorMatrix type="matrix" values="0 0 0 0 0 0 0 0 0 0 0 0 0 0 0 0 0 0 1 0"/>
<feBlend mode="color-dodge" in2="BackgroundImageFix" result="effect1_dropShadow_150_151"/>
<feBlend mode="normal" in="SourceGraphic" in2="effect1_dropShadow_150_151" result="shape"/>
</filter>
</defs>
</svg>
