<svg width="19" height="18" viewBox="0 0 19 18" fill="none" xmlns="http://www.w3.org/2000/svg">
<path d="M2.80723 0.600098C1.47266 0.600098 0.600098 1.4464 0.600098 2.55875C0.600098 3.64653 1.44667 4.51697 2.75602 4.51697H2.78134C4.14201 4.51697 4.9888 3.64653 4.9888 2.55875C4.96337 1.4464 4.14201 0.600098 2.80723 0.600098Z" fill="#ffffff"/>
<path d="M0.830708 6.06464H4.7322V17.4001H0.830708V6.06464Z" fill="#ffffff"/>
<path d="M14.3085 5.7986C12.2038 5.7986 10.7925 7.70854 10.7925 7.70854V6.06464H6.8909V17.4001H10.7923V11.0699C10.7923 10.7311 10.8177 10.3927 10.9208 10.1504C11.2028 9.47367 11.8447 8.77262 12.9225 8.77262C14.3343 8.77262 14.8989 9.81213 14.8989 11.336V17.4001H18.8001V10.9005C18.8001 7.41879 16.8752 5.7986 14.3085 5.7986Z" fill="#ffffff"/>
</svg>
