<svg width="44" height="44" viewBox="0 0 44 44" fill="none" xmlns="http://www.w3.org/2000/svg">
<path d="M22 23.8333C17.4442 23.8333 13.75 27.5275 13.75 32.0833C13.75 36.6392 17.4442 40.3333 22 40.3333C26.5558 40.3333 30.25 36.6392 30.25 32.0833C30.25 27.5275 26.5558 23.8333 22 23.8333ZM22 38.5C18.4571 38.5 15.5833 35.6263 15.5833 32.0833C15.5833 28.5404 18.4571 25.6667 22 25.6667C25.5429 25.6667 28.4167 28.5404 28.4167 32.0833C28.4167 35.6263 25.5429 38.5 22 38.5Z" fill="black"/>
<path d="M38.225 25.7537C37.5833 24.1083 36.6987 22.5729 35.5942 21.1979C35.3742 20.9229 35.0213 20.7992 34.6775 20.8771L31.0108 21.6929C29.6908 20.5517 28.1692 19.6717 26.5192 19.0987L25.3825 15.4963C25.2771 15.1617 24.9929 14.9142 24.6446 14.8637C22.9029 14.6025 21.1338 14.6025 19.3921 14.8637C19.0438 14.9142 18.7596 15.1617 18.6542 15.4963L17.5175 19.0987C15.8675 19.6717 14.3458 20.5517 13.0258 21.6929L9.35917 20.8771C9.01542 20.7992 8.6625 20.9229 8.4425 21.1979C7.33792 22.5729 6.45333 24.1083 5.81167 25.7537C5.67875 26.0746 5.73375 26.4412 5.95833 26.7025L8.51125 29.4937C8.17667 31.2033 8.17667 32.9633 8.51125 34.6729L5.95833 37.4642C5.72458 37.7208 5.65583 38.0875 5.77958 38.4129C6.00875 38.9171 6.26083 39.4029 6.545 39.8796C6.71 40.1592 7.00792 40.3333 7.33333 40.3333C7.49375 40.3333 7.64958 40.2875 7.79167 40.2096C8.22708 39.9529 8.37833 39.3938 8.12167 38.9583C8.0025 38.7613 7.85125 38.5 7.72292 38.2433L10.175 35.5713C10.3767 35.3467 10.4592 35.0396 10.3904 34.7463C9.98708 32.9954 9.98708 31.1804 10.3904 29.4296C10.4592 29.1363 10.3767 28.8292 10.175 28.6046L7.7 25.9004C8.17667 24.8004 8.77708 23.76 9.49208 22.7975L13.0717 23.5904C13.365 23.6546 13.6767 23.5721 13.8967 23.3658C15.2029 22.1467 16.7704 21.2346 18.48 20.7029C18.7687 20.6158 18.9933 20.3913 19.085 20.1025L20.1896 16.6054C21.3812 16.4725 22.5821 16.4725 23.7737 16.6054L24.8783 20.1025C24.97 20.3913 25.1946 20.6158 25.4833 20.7029C27.1929 21.2346 28.7604 22.1467 30.0667 23.3658C30.2867 23.5721 30.5983 23.6546 30.8917 23.5904L34.4712 22.7975C35.2 23.7554 35.8142 24.8004 36.3 25.9004L33.825 28.6046C33.6233 28.8292 33.5408 29.1363 33.6096 29.4296C34.0129 31.1804 34.0129 32.9954 33.6096 34.7463C33.5408 35.0396 33.6233 35.3467 33.825 35.5713L36.2725 38.2479C36.1442 38.4908 35.9929 38.7613 35.8783 38.9583C35.6721 39.4213 35.8783 39.9621 36.3367 40.1729C36.7308 40.3517 37.1983 40.2279 37.455 39.875C37.7437 39.4029 38.0004 38.9171 38.225 38.4129C38.3487 38.0875 38.2754 37.7254 38.0417 37.4688L35.4887 34.6775C35.8233 32.9679 35.8233 31.2079 35.4887 29.4983L38.0417 26.7071C38.28 26.4504 38.3487 26.0837 38.225 25.7583V25.7537Z" fill="black"/>
<path d="M38.5 0H5.5C2.46125 0 0 2.46125 0 5.5V38.5C0 41.5387 2.46125 44 5.5 44H38.5C41.5387 44 44 41.5387 44 38.5V5.5C44 2.46125 41.5387 0 38.5 0ZM5.5 1.83333H38.5C40.5258 1.83333 42.1667 3.47417 42.1667 5.5V9.16667H1.83333V5.5C1.83333 3.47417 3.47417 1.83333 5.5 1.83333ZM38.5 42.1667H5.5C3.47417 42.1667 1.83333 40.5258 1.83333 38.5V11H42.1667V38.5C42.1667 40.5258 40.5258 42.1667 38.5 42.1667Z" fill="black"/>
</svg>
