<svg width="44" height="44" viewBox="0 0 44 44" fill="none" xmlns="http://www.w3.org/2000/svg">
<g clip-path="url(#clip0_112_428)">
<path d="M10.213 15.8853C5.25989 15.8853 0 17.5095 0 20.5166V39.3737C0 42.3808 5.26491 44 10.213 44C15.1611 44 20.4261 42.3758 20.4261 39.3737V20.5166C20.4261 17.5095 15.1611 15.8853 10.213 15.8853ZM18.8571 39.3737C18.8571 40.651 15.5685 42.4311 10.213 42.4311C4.8576 42.4311 1.56891 40.651 1.56891 39.3737V37.2014C3.49989 38.5641 6.91931 39.2882 10.213 39.2882C13.5067 39.2882 16.9262 38.5691 18.8571 37.2014V39.3737ZM18.8571 34.6569C18.8571 35.9342 15.5685 37.7143 10.213 37.7143C4.8576 37.7143 1.56891 35.9342 1.56891 34.6569V32.4846C3.49989 33.8473 6.91931 34.5714 10.213 34.5714C13.5067 34.5714 16.9262 33.8523 18.8571 32.4846V34.6569ZM18.8571 29.9401C18.8571 31.2174 15.5685 32.9975 10.213 32.9975C4.8576 32.9975 1.56891 31.2174 1.56891 29.9401V27.7678C3.49989 29.1305 6.91931 29.8546 10.213 29.8546C13.5067 29.8546 16.9262 29.1355 18.8571 27.7678V29.9401ZM18.8571 25.2233C18.8571 26.5006 15.5685 28.2807 10.213 28.2807C4.8576 28.2807 1.56891 26.5006 1.56891 25.2233V23.051C3.49989 24.4137 6.91931 25.1378 10.213 25.1378C13.5067 25.1378 16.9262 24.4187 18.8571 23.051V25.2233ZM10.213 23.5689C4.8576 23.5689 1.56891 21.7888 1.56891 20.5065C1.56891 19.2242 4.8576 17.4441 10.213 17.4441C15.5685 17.4441 18.8571 19.2242 18.8571 20.5065C18.8571 21.7888 15.5685 23.5689 10.213 23.5689Z" fill="black"/>
<path d="M33.7868 15.8853C28.8336 15.8853 23.5737 17.5095 23.5737 20.5166V39.3737C23.5737 42.3808 28.8386 44 33.7868 44C38.7349 44 43.9998 42.3758 43.9998 39.3737V20.5166C43.9998 17.5095 38.7399 15.8853 33.7868 15.8853ZM42.4309 39.3737C42.4309 40.651 39.1422 42.4311 33.7868 42.4311C28.4313 42.4311 25.1426 40.651 25.1426 39.3737V37.2014C27.0736 38.5641 30.493 39.2882 33.7868 39.2882C37.0805 39.2882 40.4999 38.5691 42.4309 37.2014V39.3737ZM42.4309 34.6569C42.4309 35.9342 39.1422 37.7143 33.7868 37.7143C28.4313 37.7143 25.1426 35.9342 25.1426 34.6569V32.4846C27.0736 33.8473 30.493 34.5714 33.7868 34.5714C37.0805 34.5714 40.4999 33.8523 42.4309 32.4846V34.6569ZM42.4309 29.9401C42.4309 31.2174 39.1422 32.9975 33.7868 32.9975C28.4313 32.9975 25.1426 31.2174 25.1426 29.9401V27.7678C27.0736 29.1305 30.493 29.8546 33.7868 29.8546C37.0805 29.8546 40.4999 29.1355 42.4309 27.7678V29.9401ZM42.4309 25.2233C42.4309 26.5006 39.1422 28.2807 33.7868 28.2807C28.4313 28.2807 25.1426 26.5006 25.1426 25.2233V23.051C27.0736 24.4137 30.493 25.1378 33.7868 25.1378C37.0805 25.1378 40.4999 24.4187 42.4309 23.051V25.2233ZM33.7868 23.5689C28.4313 23.5689 25.1426 21.7888 25.1426 20.5065C25.1426 19.2242 28.4313 17.4441 33.7868 17.4441C39.1422 17.4441 42.4309 19.2242 42.4309 20.5065C42.4309 21.7888 39.1422 23.5689 33.7868 23.5689Z" fill="black"/>
<path d="M10.2132 10.213C10.4193 10.213 10.6205 10.1326 10.7713 9.98171C10.9222 9.83086 11.0027 9.63474 11.0027 9.42354V3.14286C11.0027 2.27291 11.7067 1.57394 12.5716 1.57394H31.4287C32.2987 1.57394 32.9976 2.27794 32.9976 3.14286V7.5328L31.9819 6.51703C31.6751 6.21531 31.1773 6.21531 30.8756 6.51703C30.5688 6.82377 30.5688 7.31657 30.8756 7.62331L33.234 9.98171C33.3798 10.1275 33.5809 10.213 33.7921 10.213C34.0033 10.213 34.1995 10.1326 34.3503 9.98171L36.7087 7.62331C36.8596 7.47749 36.94 7.27634 36.94 7.06514C36.94 6.85897 36.8596 6.65783 36.7087 6.50697C36.5579 6.36114 36.3567 6.27566 36.1505 6.27566C35.9393 6.27566 35.7382 6.36114 35.5924 6.50697L34.5766 7.52274V3.14286C34.5766 1.408 33.1686 0 31.4337 0H12.5716C10.8367 0 9.42871 1.408 9.42871 3.14286V9.42857C9.42871 9.63474 9.50917 9.83589 9.66002 9.98674C9.81088 10.1376 10.007 10.2181 10.2182 10.2181L10.2132 10.213Z" fill="black"/>
</g>
<defs>
<clipPath id="clip0_112_428">
<rect width="44" height="44" fill="white"/>
</clipPath>
</defs>
</svg>
