<svg width="44" height="44" viewBox="0 0 44 44" fill="none" xmlns="http://www.w3.org/2000/svg">
<g clip-path="url(#clip0_112_357)">
<path d="M21.9837 32.2688C21.5405 32.2688 21.0985 32.2737 20.6553 32.2675C20.1167 32.2602 19.8755 32.0484 19.7934 31.5232C19.7408 31.1914 19.649 30.8596 19.6514 30.5278C19.6563 29.8948 19.3919 29.5508 18.7748 29.3586C18.4283 29.2509 18.1982 29.2264 17.9178 29.47C17.5615 29.7785 17.1722 30.0528 16.7853 30.3246C16.3813 30.6086 16.0765 30.5841 15.7214 30.2352C15.0664 29.5949 14.4188 28.9472 13.7772 28.2922C13.4124 27.9188 13.394 27.614 13.6964 27.1916C13.9903 26.7827 14.2829 26.3713 14.6049 25.9844C14.7897 25.7628 14.7481 25.5853 14.6832 25.3258C14.5045 24.6096 14.0735 24.3145 13.3585 24.3206C13.0561 24.3231 12.7537 24.2472 12.4526 24.2019C11.9812 24.1296 11.7449 23.8799 11.7388 23.4061C11.729 22.4744 11.729 21.5427 11.7388 20.611C11.7437 20.1115 11.9751 19.8703 12.4807 19.7956C12.8125 19.7467 13.1455 19.6524 13.4761 19.6585C14.1164 19.6683 14.4506 19.3892 14.6416 18.7758C14.7481 18.4318 14.7836 18.2004 14.5339 17.9188C14.2315 17.576 13.9731 17.1952 13.7062 16.823C13.3953 16.3921 13.4051 16.0897 13.765 15.7212C14.4163 15.0552 15.0787 14.4002 15.7398 13.7452C16.0569 13.4305 16.4058 13.3975 16.7694 13.6643C17.2004 13.9802 17.613 14.323 18.0611 14.612C18.2055 14.705 18.443 14.7111 18.6242 14.6793C19.3527 14.552 19.7004 14.1137 19.6747 13.3583C19.6649 13.073 19.7494 12.7853 19.7934 12.4988C19.8791 11.9454 20.1154 11.7373 20.6835 11.7349C21.5687 11.73 22.4551 11.7287 23.3402 11.7349C23.8801 11.7385 24.125 11.9528 24.2046 12.4756C24.2805 12.9738 24.3539 13.4709 24.4164 13.9704C24.447 14.219 24.5682 14.334 24.7959 14.4638C25.4423 14.8311 25.9725 14.7772 26.4842 14.2336C26.6911 14.0145 26.9605 13.8529 27.2115 13.679C27.6167 13.3962 27.9179 13.4121 28.2754 13.7611C28.9304 14.4014 29.578 15.0503 30.2196 15.704C30.5868 16.0787 30.6101 16.3823 30.3077 16.8047C30.0065 17.2271 29.6674 17.6237 29.387 18.0596C29.294 18.204 29.2891 18.4416 29.3197 18.6228C29.4446 19.3537 29.8853 19.6965 30.6395 19.672C30.9394 19.6622 31.2443 19.7467 31.5442 19.7969C32.0401 19.8801 32.258 20.1274 32.2629 20.6367C32.2702 21.5378 32.269 22.4389 32.2629 23.34C32.2592 23.8787 32.0474 24.1247 31.5222 24.2068C31.0251 24.2851 30.5268 24.3586 30.0273 24.421C29.7776 24.4516 29.6588 24.5692 29.5303 24.7981C29.1691 25.4433 29.2205 25.9759 29.7666 26.4864C29.9857 26.6921 30.1461 26.9639 30.3199 27.2149C30.6003 27.6226 30.5832 27.9225 30.2342 28.2812C29.5939 28.9374 28.9463 29.5839 28.2913 30.2254C27.9191 30.5903 27.6118 30.6111 27.1906 30.3087C26.7817 30.0161 26.3704 29.7222 25.9835 29.4002C25.7619 29.2154 25.5856 29.2533 25.326 29.3231C24.6514 29.5067 24.3099 29.8814 24.3319 30.6C24.3405 30.9 24.2523 31.2036 24.2058 31.5048C24.1201 32.0557 23.8826 32.2614 23.3133 32.2675C22.8701 32.2724 22.4281 32.2675 21.9849 32.2675L21.9837 32.2688ZM16.3813 28.7942C16.8429 28.4502 17.2983 28.1172 17.7452 27.7744C18.0464 27.5442 18.3451 27.5393 18.6855 27.6936C19.2254 27.9384 19.7726 28.1674 20.3272 28.3767C20.6602 28.5028 20.8647 28.6987 20.9137 29.0599C20.992 29.6316 21.0851 30.2021 21.1732 30.7861H22.8223C22.9056 30.2352 23.006 29.6977 23.0635 29.1542C23.1125 28.6889 23.3721 28.471 23.792 28.3302C24.2817 28.1674 24.7653 27.9727 25.2232 27.7376C25.6284 27.5295 25.9651 27.5405 26.3202 27.8233C26.745 28.1612 27.1882 28.4771 27.5604 28.7563C27.9962 28.3559 28.3868 27.996 28.792 27.625C28.4443 27.1585 28.1101 26.7056 27.7685 26.2562C27.553 25.9734 27.5224 25.6869 27.6681 25.3588C27.9203 24.7883 28.1603 24.2129 28.3856 23.6313C28.5092 23.313 28.7124 23.1343 29.0503 23.0865C29.6221 23.007 30.1926 22.9164 30.7766 22.8282V21.1754C30.2269 21.0922 29.6894 20.9942 29.1471 20.9354C28.7088 20.8877 28.4774 20.6563 28.3354 20.2511C28.1554 19.7356 27.9448 19.2276 27.7085 18.7342C27.5298 18.362 27.5322 18.0437 27.7893 17.7143C28.1321 17.2736 28.459 16.8194 28.7479 16.4313C28.35 15.9991 27.9901 15.6085 27.6179 15.2045C27.1527 15.551 26.6985 15.8852 26.2504 16.2268C25.9504 16.4557 25.6505 16.4643 25.3101 16.3088C24.7702 16.064 24.2229 15.835 23.6683 15.6257C23.3353 15.5008 23.1309 15.3049 23.0807 14.9437C23.0023 14.372 22.9093 13.8015 22.8211 13.2175H21.172C21.0887 13.7672 20.9896 14.3059 20.9308 14.8482C20.8831 15.2878 20.6517 15.5192 20.2464 15.6587C19.7445 15.8326 19.245 16.026 18.7712 16.2648C18.3659 16.4692 18.0305 16.4619 17.6742 16.1778C17.2506 15.8387 16.8049 15.5265 16.4291 15.2474C15.9957 15.6465 15.6051 16.0064 15.2023 16.3774C15.55 16.8438 15.8843 17.2981 16.2258 17.7462C16.4548 18.0461 16.4621 18.3461 16.3066 18.6864C16.0618 19.2263 15.8328 19.7736 15.6235 20.3282C15.4974 20.6612 15.3015 20.8657 14.9416 20.9159C14.3698 20.9954 13.7993 21.0873 13.2153 21.1766V22.8233C13.7662 22.9078 14.3037 23.0082 14.8461 23.0657C15.3113 23.1147 15.5292 23.3755 15.6688 23.7954C15.8328 24.2851 16.0275 24.7687 16.2613 25.2278C16.4683 25.6331 16.456 25.9698 16.1744 26.326C15.8377 26.7521 15.5231 27.1953 15.2305 27.5895C15.6345 28.0119 16.0006 28.3963 16.3789 28.793L16.3813 28.7942Z" fill="black"/>
<path d="M37.4122 21.2685C36.8429 15.098 33.825 10.682 28.3145 7.90285C28.5018 7.48659 28.694 7.06053 28.8972 6.60999C30.315 7.23316 31.5943 8.02528 32.7476 9.00839C36.6201 12.3091 38.65 16.5133 38.8544 21.5954C38.8924 22.5356 38.7087 22.7034 37.7562 22.7364C37.7011 22.7389 37.646 22.7511 37.5248 22.7683C38.2288 23.6118 38.8961 24.4137 39.5963 25.2548C40.2942 24.4174 40.9614 23.6179 41.6495 22.7915C40.3628 22.592 40.4081 22.5895 40.3113 21.3052C39.7322 13.6411 35.9541 8.20035 28.9352 5.0331C28.7821 4.96454 28.6242 4.90699 28.4699 4.83966C28.4442 4.82864 28.4271 4.79926 28.3659 4.74049C28.514 4.33647 28.6695 3.91286 28.825 3.48926C33.7589 4.95964 41.3177 11.0738 41.8123 21.2673C42.2482 21.2673 42.6877 21.2734 43.1272 21.2648C43.4774 21.2587 43.7577 21.364 43.9169 21.6958C44.0797 22.0349 43.9561 22.3128 43.7357 22.5773C42.5702 23.973 41.4108 25.3723 40.2428 26.7656C39.8192 27.2712 39.365 27.2675 38.9389 26.7595C37.7721 25.3662 36.6115 23.9668 35.446 22.5724C35.2256 22.3079 35.1056 22.0288 35.2709 21.6909C35.4337 21.3579 35.7166 21.2599 36.0643 21.266C36.4879 21.2746 36.9127 21.2685 37.4085 21.2685H37.4122Z" fill="black"/>
<path d="M22.7302 37.4206C28.8921 36.8452 33.3033 33.8371 36.0824 28.3229C36.4901 28.5028 36.9137 28.6889 37.4206 28.913C37.0251 29.6255 36.6884 30.3393 36.2575 30.9906C32.969 35.9625 28.3351 38.5837 22.3825 38.8616C21.4741 38.9045 21.2794 38.6927 21.2623 37.7891C21.2623 37.7291 21.2537 37.6679 21.2439 37.5296C20.7995 37.8957 20.3918 38.2274 19.9878 38.5629C19.5899 38.8935 19.1932 39.2277 18.7451 39.6035C19.5691 40.2916 20.371 40.9601 21.2231 41.6726C21.2403 41.5098 21.2586 41.4008 21.2611 41.2906C21.2745 40.5707 21.501 40.3467 22.2319 40.3332C24.4981 40.2953 26.6957 39.8778 28.7893 39.0122C33.5946 37.0264 37.0031 33.6216 39.0134 28.8236C39.0709 28.6853 39.1309 28.5457 39.2093 28.3584C39.661 28.5237 40.0957 28.6816 40.5278 28.8395C38.5849 34.6574 32.3116 41.3163 22.7278 41.8146C22.7278 42.2456 22.7217 42.6827 22.7302 43.1197C22.7364 43.4662 22.6445 43.7539 22.314 43.9192C21.9577 44.0979 21.6712 43.9584 21.3957 43.727C20.0135 42.5712 18.6264 41.4216 17.2454 40.2634C16.7189 39.8227 16.7251 39.3795 17.2589 38.9326C18.6399 37.7757 20.027 36.6248 21.408 35.4679C21.67 35.2475 21.9442 35.1128 22.2858 35.2695C22.6421 35.4324 22.7388 35.7323 22.7302 36.0972C22.7204 36.5073 22.7278 36.9174 22.7278 37.4194L22.7302 37.4206Z" fill="black"/>
<path d="M4.78188 15.6428C4.33257 15.4788 3.90896 15.3233 3.48535 15.169C4.91655 10.4396 10.7577 2.76566 21.2646 2.18412C21.2646 1.74827 21.2707 1.30997 21.2621 0.870448C21.256 0.521523 21.3552 0.239935 21.687 0.0771034C22.0249 -0.0881767 22.304 0.0318044 22.5685 0.252178C23.9629 1.41771 25.3623 2.57712 26.7543 3.7451C27.2624 4.17115 27.2673 4.62659 26.7629 5.04897C25.3709 6.21695 23.9715 7.37636 22.5758 8.54067C22.3126 8.76104 22.0359 8.88837 21.6955 8.72676C21.3625 8.56883 21.2548 8.28969 21.2609 7.93831C21.2683 7.51348 21.2634 7.08865 21.2634 6.58179C15.1027 7.15109 10.6879 10.1641 7.90751 15.6795C7.49615 15.4947 7.07254 15.3049 6.52528 15.06C7.15702 14.0341 7.69326 12.9861 8.38988 12.0593C11.6955 7.66162 16.1262 5.36729 21.6209 5.13957C22.5232 5.10284 22.7056 5.30363 22.7301 6.2243C22.7313 6.28306 22.7411 6.34061 22.7558 6.47528C23.5993 5.77253 24.4012 5.10651 25.2497 4.40009C24.4172 3.70592 23.6165 3.03745 22.8145 2.36776C22.7741 2.40939 22.7386 2.42898 22.7399 2.44734C22.7876 3.63736 22.3224 3.66429 21.4715 3.67776C14.3902 3.7855 7.72264 8.40967 5.02797 15.0625C4.95451 15.2437 4.87493 15.4212 4.78188 15.6404V15.6428Z" fill="black"/>
<path d="M6.58537 22.7352C7.08733 28.5898 9.86281 32.8858 14.9767 35.7483C14.7735 36.1535 14.5653 36.5685 14.3193 37.0583C13.6447 36.642 12.9738 36.282 12.3604 35.8413C7.8464 32.5957 5.44677 28.1809 5.14437 22.6324C5.07826 21.4277 5.19334 21.3322 6.47518 21.2403C5.77489 20.398 5.11009 19.5998 4.40122 18.7477C3.71072 19.5753 3.04226 20.376 2.32971 21.2293C2.49255 21.2465 2.60273 21.2648 2.7117 21.2673C3.42913 21.2807 3.65685 21.5109 3.66665 22.2406C3.69358 24.3035 4.03761 26.3114 4.75872 28.2445C6.57313 33.1062 9.85302 36.6065 14.569 38.7649C14.6792 38.8151 14.7894 38.8641 14.9449 38.9339C14.7588 39.3783 14.5813 39.8068 14.4025 40.2329C9.31555 38.3523 2.68966 32.45 2.1877 22.734C1.75797 22.734 1.32212 22.7266 0.886269 22.7364C0.520204 22.7438 0.2227 22.6422 0.0635415 22.2847C-0.0894956 21.9419 0.0500743 21.6701 0.269223 21.4081C1.42496 20.0258 2.57457 18.6387 3.73153 17.2577C4.16249 16.7435 4.63751 16.7472 5.07336 17.2675C6.23032 18.6485 7.37994 20.0356 8.53568 21.4179C8.75605 21.6811 8.88582 21.9566 8.72666 22.2969C8.56016 22.652 8.25898 22.7438 7.89537 22.7352C7.48645 22.7254 7.07631 22.7328 6.58415 22.7328L6.58537 22.7352Z" fill="black"/>
<path d="M21.9919 17.6017C24.4209 17.6029 26.392 19.5704 26.3957 21.9957C26.3982 24.421 24.4197 26.4056 22.0042 26.4007C19.5592 26.3958 17.5906 24.4112 17.5991 21.9602C17.6077 19.5691 19.5911 17.6005 21.9919 17.6017ZM24.9302 21.9785C24.9217 20.3612 23.586 19.0525 21.9638 19.0684C20.3452 19.0855 19.0487 20.4188 19.0659 22.0471C19.083 23.6399 20.4089 24.9413 22.0091 24.934C23.6288 24.9267 24.9388 23.602 24.9302 21.9773V21.9785Z" fill="black"/>
</g>
<defs>
<clipPath id="clip0_112_357">
<rect width="43.9939" height="44" fill="white"/>
</clipPath>
</defs>
</svg>
