<svg width="80" height="72" viewBox="0 0 80 72" fill="none" xmlns="http://www.w3.org/2000/svg">
<g filter="url(#filter0_d_112_330)">
<path d="M40.8639 16.4761V15.69C40.8639 15.2152 40.4768 14.8242 39.998 14.8242C39.5192 14.8242 39.1361 15.2112 39.1361 15.69V16.4761C39.1361 16.9509 39.5232 17.342 39.998 17.342C40.4728 17.342 40.8639 16.9549 40.8639 16.4761Z" fill="white"/>
<path d="M40.8639 48.31V47.5239C40.8639 47.0491 40.4768 46.662 39.998 46.662C39.5232 46.662 39.1361 47.0491 39.1361 47.5239V48.31C39.1361 48.7848 39.5232 49.1758 39.998 49.1758C40.4728 49.1758 40.8639 48.7888 40.8639 48.31Z" fill="white"/>
<path d="M55.5239 31.1361C55.0491 31.1361 54.658 31.5232 54.658 31.998C54.658 32.4728 55.0451 32.8639 55.5239 32.8639H56.31C56.7848 32.8639 57.1758 32.4768 57.1758 31.998C57.1758 31.5192 56.7888 31.1361 56.31 31.1361H55.5239Z" fill="white"/>
<path d="M24.4761 31.1361H23.69C23.2152 31.1361 22.8281 31.5232 22.8281 31.998C22.8281 32.4728 23.2152 32.8639 23.69 32.8639H24.4761C24.9509 32.8639 25.338 32.4768 25.338 31.998C25.338 31.5192 24.9509 31.1361 24.4761 31.1361Z" fill="white"/>
<path d="M60.0608 14.8281C59.8293 14.8042 59.6059 14.872 59.4303 15.0197L56.4855 17.4258L56.2302 17.1465C52.0764 12.6056 46.1589 10 39.998 10C27.8678 10 18 19.8678 18 31.998C18 44.1282 27.8678 54 39.998 54C52.1282 54 62 44.1282 62 31.998C62 29.4163 61.5571 26.8866 60.6832 24.4805C60.5196 24.0336 60.0248 23.8021 59.5779 23.9657C59.131 24.1293 58.8996 24.6241 59.0632 25.071C59.8692 27.2896 60.2762 29.6198 60.2762 31.998C60.2762 43.1786 51.1826 52.2722 40.002 52.2722C28.8214 52.2722 19.7278 43.1786 19.7278 31.998C19.7278 20.8174 28.8214 11.7278 39.998 11.7278C45.6162 11.7278 51.0309 14.09 54.8535 18.2079L55.1408 18.5191L40.0299 30.8648L35.2816 26.5115C34.9304 26.1923 34.3838 26.2162 34.0606 26.5633C33.905 26.7349 33.8252 26.9544 33.8331 27.1858C33.8411 27.4172 33.9409 27.6287 34.1125 27.7843L39.4114 32.6404C39.7187 32.9197 40.2215 32.9357 40.5407 32.6724L60.5196 16.3564C60.8867 16.0571 60.9426 15.5105 60.6393 15.1394C60.4917 14.9598 60.2882 14.8481 60.0568 14.8281H60.0608Z" fill="white"/>
</g>
<defs>
<filter id="filter0_d_112_330" x="-2" y="0" width="84" height="84" filterUnits="userSpaceOnUse" color-interpolation-filters="sRGB">
<feFlood flood-opacity="0" result="BackgroundImageFix"/>
<feColorMatrix in="SourceAlpha" type="matrix" values="0 0 0 0 0 0 0 0 0 0 0 0 0 0 0 0 0 0 127 0" result="hardAlpha"/>
<feOffset dy="10"/>
<feGaussianBlur stdDeviation="10"/>
<feComposite in2="hardAlpha" operator="out"/>
<feColorMatrix type="matrix" values="0 0 0 0 1 0 0 0 0 1 0 0 0 0 1 0 0 0 0.4 0"/>
<feBlend mode="color-dodge" in2="BackgroundImageFix" result="effect1_dropShadow_112_330"/>
<feBlend mode="normal" in="SourceGraphic" in2="effect1_dropShadow_112_330" result="shape"/>
</filter>
</defs>
</svg>
