<svg version="1.2" xmlns="http://www.w3.org/2000/svg" viewBox="0 0 28 28" width="28" height="28">
	<title>our-values-star-svg</title>
	<style>
		.s0 { fill: #ffffff } 
	</style>
	<g>
		<path class="s0" d="m12.1 1.9c0.6-1.9 3.2-1.9 3.8 0l1.9 5.8c0.3 0.9 1.1 1.4 1.9 1.4h6.2c2 0 2.8 2.5 1.2 3.6l-5 3.7c-0.7 0.5-1 1.4-0.7 2.2l1.9 5.9c0.6 1.9-1.5 3.4-3.1 2.3l-5-3.7c-0.7-0.5-1.7-0.5-2.4 0l-5 3.7c-1.6 1.1-3.7-0.4-3.1-2.3l1.9-5.9c0.3-0.8 0-1.7-0.7-2.2l-5-3.7c-1.6-1.1-0.8-3.6 1.2-3.6h6.2c0.8 0 1.6-0.5 1.9-1.4z"/>
	</g>
</svg>