<svg width="80" height="73" viewBox="0 0 80 73" fill="none" xmlns="http://www.w3.org/2000/svg">
<g filter="url(#filter0_d_112_345)">
<path d="M28.2572 55.544C27.5476 55.3087 27.0342 54.8107 26.5219 54.2948C23.9725 51.73 21.4088 49.177 18.8522 46.6192C17.716 45.483 17.7172 44.2172 18.8522 43.0773C19.5951 42.3321 20.3439 41.5929 21.0831 40.8441C21.8272 40.0905 22.6805 39.8909 23.6849 40.2557C23.8299 40.308 24.0842 40.2391 24.2126 40.1345C25.7933 38.8366 27.3979 37.5637 28.9204 36.2004C31.3011 34.0705 34.0668 33.6118 37.0893 34.1621C37.8131 34.294 38.5096 34.5745 39.2299 34.7326C39.9335 34.8871 40.6502 35.0535 41.3645 35.0737C43.0831 35.1224 44.803 35.1117 46.5228 35.0832C48.0144 35.0582 49.2481 35.5467 50.2037 36.765C50.3547 36.6319 50.4985 36.5094 50.6387 36.3823C52.3169 34.8574 53.9762 33.3099 55.6782 31.8123C57.0842 30.575 59.1345 30.4502 60.7295 31.4296C62.2342 32.3543 62.4255 33.9065 61.1823 35.1533C58.4701 37.8703 55.715 40.5469 53.055 43.3139C51.7037 44.7187 50.1051 45.5638 48.2569 46.0214C45.1678 46.7856 42.0241 46.9508 38.8578 46.8759C38.0306 46.8569 37.1927 46.8011 36.3762 46.9033C34.875 47.0899 33.7376 47.9528 32.8295 49.0058C33.0435 49.4919 33.3014 49.9139 33.4167 50.3715C33.608 51.1321 33.3466 51.8084 32.8046 52.3623C31.975 53.2097 31.1549 54.069 30.2789 54.8665C29.9437 55.172 29.4683 55.3241 29.0571 55.5464H28.256L28.2572 55.544ZM31.8312 48.0455C32.019 47.8387 32.2341 47.5736 32.4777 47.3395C33.4179 46.4362 34.5149 45.7682 35.8033 45.5733C36.7898 45.4247 37.8072 45.4307 38.8091 45.4509C41.7068 45.5079 44.589 45.395 47.4285 44.7663C48.8523 44.4513 50.262 44.0484 51.3376 42.9823C54.3161 40.0275 57.2768 37.0538 60.241 34.0848C60.7319 33.5927 60.6748 33.1173 60.1019 32.7156C59.0097 31.9514 57.5204 32.0464 56.4911 32.9771C54.6869 34.6066 52.8982 36.2539 51.0951 37.8858C50.9073 38.0557 50.8657 38.2055 50.9121 38.4598C51.233 40.2355 50.2394 41.4098 48.4363 41.4098C44.4036 41.4098 40.3709 41.4098 36.3381 41.4098C36.205 41.4098 36.0707 41.4169 35.9376 41.4027C35.5608 41.3635 35.3386 41.1388 35.2993 40.7751C35.2601 40.4067 35.4467 40.1404 35.8045 40.0382C35.9851 39.9871 36.1848 39.9895 36.375 39.9895C40.422 39.9871 44.4702 39.9895 48.5172 39.9871C49.304 39.9871 49.5928 39.671 49.531 38.8913C49.4264 37.5661 48.2818 36.5285 46.8758 36.5178C45.0668 36.5035 43.2578 36.5035 41.4501 36.5178C40.4743 36.5249 39.5484 36.3228 38.6142 36.059C37.6075 35.7737 36.5782 35.4968 35.543 35.4065C33.6461 35.2413 31.8537 35.6192 30.3383 36.885C28.6661 38.2816 26.9938 39.6793 25.3227 41.077C25.2264 41.1578 25.1396 41.2506 25.0089 41.3765C27.2743 43.592 29.5111 45.7789 31.8312 48.0479V48.0455ZM32.1378 50.7197C31.9631 50.4701 31.8288 50.2062 31.6303 50.0054C30.0353 48.3937 28.4284 46.7939 26.825 45.1906C25.7137 44.0793 24.606 42.9656 23.4923 41.8591C22.9884 41.3587 22.5819 41.3623 22.0768 41.8627C21.3078 42.6245 20.5423 43.3876 19.7817 44.1566C19.3027 44.6403 19.3098 45.0468 19.7924 45.54C20.0717 45.8265 20.3569 46.107 20.6398 46.3898C23.0918 48.8418 25.5437 51.2938 27.9981 53.7446C28.4652 54.2105 28.8871 54.2497 29.3138 53.8349C30.1517 53.0172 30.979 52.1876 31.7931 51.3473C31.9381 51.1975 32.0035 50.9717 32.139 50.7185L32.1378 50.7197Z" fill="white"/>
<path d="M49.5583 30.5251C49.1709 30.3944 48.7668 30.2969 48.3983 30.1246C47.7826 29.8358 47.1872 29.5018 46.587 29.1797C46.2019 28.9729 45.8299 28.9764 45.4448 29.1844C44.8457 29.5089 44.2408 29.8203 43.637 30.1365C42.7444 30.6024 41.8625 30.5893 41.0317 30.0128C40.1866 29.4269 39.8491 28.5937 40 27.5775C40.0963 26.9333 40.2057 26.2903 40.3316 25.6509C40.4374 25.1113 40.3293 24.668 39.905 24.2888C39.4188 23.855 38.9577 23.3915 38.4977 22.9291C37.7715 22.1993 37.5552 21.3222 37.8821 20.3547C38.2113 19.3825 38.928 18.8429 39.9477 18.7038C40.5931 18.6159 41.2373 18.5101 41.8827 18.4233C42.3641 18.358 42.6957 18.1191 42.9037 17.6734C43.1913 17.0565 43.4979 16.448 43.8093 15.8418C44.2705 14.9421 45.024 14.4631 46.0248 14.4643C47.0279 14.4643 47.7755 14.954 48.2367 15.8513C48.5409 16.4432 48.8452 17.0375 49.1174 17.6448C49.3349 18.1309 49.6938 18.3687 50.2073 18.434C50.8539 18.5148 51.4992 18.6111 52.1422 18.711C53.1382 18.8643 53.83 19.4098 54.1568 20.3654C54.4837 21.3234 54.2626 22.1803 53.5625 22.9018C53.0669 23.4128 52.5535 23.9049 52.0388 24.397C51.7084 24.7131 51.6074 25.0804 51.6906 25.5273C51.8213 26.2261 51.9354 26.9274 52.0448 27.6298C52.2777 29.1238 51.0999 30.4716 49.5583 30.5251ZM41.3954 27.8283C41.3526 28.7387 42.1287 29.2736 42.8787 28.9194C43.5205 28.6163 44.1421 28.2681 44.7685 27.9329C45.6052 27.486 46.436 27.4848 47.2716 27.9329C47.8718 28.255 48.4768 28.5664 49.0793 28.8849C49.4846 29.0989 49.8816 29.0941 50.2465 28.81C50.5912 28.5414 50.71 28.1801 50.6304 27.7439C50.508 27.0736 50.4141 26.3985 50.2905 25.7293C50.1193 24.8082 50.3808 24.0333 51.0405 23.3831C51.5468 22.8839 52.0626 22.3931 52.563 21.8879C52.8554 21.592 52.96 21.2331 52.8185 20.8266C52.6795 20.4272 52.399 20.1907 51.9806 20.1265C51.3946 20.0374 50.8111 19.9256 50.2227 19.8698C49.0734 19.7616 48.2497 19.2292 47.7826 18.1535C47.5533 17.6246 47.2692 17.1195 47.0244 16.5977C46.8247 16.1746 46.5228 15.8917 46.0414 15.8822C45.5399 15.8715 45.2237 16.158 45.0133 16.5965C44.7126 17.2241 44.4084 17.8493 44.0875 18.4661C43.7 19.2101 43.0867 19.6594 42.2523 19.7913C41.5499 19.9019 40.8487 20.016 40.145 20.1099C39.6886 20.1705 39.3594 20.3904 39.2204 20.8266C39.0754 21.2794 39.2215 21.6621 39.5698 21.9878C40.0452 22.4335 40.4992 22.903 40.9723 23.351C41.6925 24.0333 41.9172 24.8605 41.7425 25.8197C41.6153 26.5185 41.5012 27.2198 41.3978 27.8271L41.3954 27.8283Z" fill="white"/>
<path d="M56.9036 16.7522C56.7942 16.8687 56.6314 17.1445 56.3901 17.2752C55.9503 17.5141 55.5569 18.0216 54.9555 17.7054C54.5122 17.4725 54.4551 16.8568 54.8664 16.5573C55.2087 16.3077 55.5866 16.0938 55.9753 15.925C56.4091 15.7372 56.8929 16.0997 56.9047 16.7522H56.9036Z" fill="white"/>
<path d="M52.7484 12.2785C52.3752 12.8288 52.0852 13.3423 51.6989 13.7678C51.5919 13.8855 51.1581 13.8141 50.9418 13.7C50.6577 13.5515 50.5852 13.2175 50.729 12.9192C50.9085 12.5472 51.1177 12.1858 51.3507 11.8459C51.5396 11.5702 51.8617 11.4882 52.1399 11.6403C52.3585 11.7603 52.5047 12.0135 52.7484 12.2797V12.2785Z" fill="white"/>
<path d="M46.7522 11.2065C46.7332 11.4418 46.7403 11.6831 46.6892 11.9101C46.606 12.2797 46.3338 12.4568 45.9689 12.4319C45.6029 12.4069 45.3568 12.1942 45.3295 11.815C45.3033 11.4466 45.3057 11.0745 45.3212 10.7061C45.339 10.2996 45.6112 10.0227 45.9784 10.0013C46.3552 9.9787 46.6714 10.2556 46.7213 10.6728C46.7427 10.8475 46.7248 11.027 46.7248 11.2053C46.7343 11.2053 46.7427 11.2053 46.7522 11.2065Z" fill="white"/>
<path d="M37.4328 17.0042C37.4173 17.5854 36.9645 17.942 36.5378 17.7637C36.1325 17.5937 35.7439 17.362 35.3849 17.1052C35.1032 16.9044 35.0521 16.5799 35.2185 16.2673C35.3802 15.9607 35.6725 15.7741 35.9935 15.906C36.4261 16.0855 36.8326 16.3422 37.22 16.6096C37.3543 16.7023 37.3959 16.9293 37.434 17.0042H37.4328Z" fill="white"/>
<path d="M34.7776 23.1597C34.585 23.1597 34.3901 23.1787 34.2011 23.1561C33.8339 23.111 33.608 22.8958 33.5783 22.5191C33.5474 22.1221 33.7447 21.8273 34.1262 21.7786C34.5613 21.7227 35.0165 21.7215 35.4515 21.7822C35.8294 21.8356 36.0327 22.1352 35.9923 22.5298C35.9554 22.8994 35.726 23.1169 35.3552 23.1573C35.165 23.1775 34.9713 23.1609 34.7788 23.1597H34.7776Z" fill="white"/>
<path d="M57.2435 23.1621C57.0652 23.1621 56.8869 23.1739 56.7098 23.1597C56.3164 23.1288 56.0371 22.8388 56.0288 22.4715C56.0205 22.1126 56.2974 21.7845 56.6837 21.756C57.0664 21.7275 57.455 21.7263 57.8377 21.7584C58.2228 21.7905 58.4926 22.1304 58.4748 22.4893C58.4558 22.8554 58.1729 23.1335 57.7759 23.1609C57.5989 23.1728 57.4206 23.1633 57.2423 23.1609L57.2435 23.1621Z" fill="white"/>
<path d="M41.5119 13.1795C41.2611 13.4481 41.1125 13.7369 40.8986 13.7999C40.6787 13.8641 40.2996 13.7916 40.1557 13.6311C39.8681 13.3066 39.634 12.9025 39.4973 12.4913C39.4284 12.2857 39.5508 11.9018 39.7207 11.7627C39.8895 11.6248 40.3578 11.5749 40.466 11.6938C40.851 12.1169 41.1387 12.628 41.5119 13.1795Z" fill="white"/>
</g>
<defs>
<filter id="filter0_d_112_345" x="-1.99951" y="0" width="84" height="85.5464" filterUnits="userSpaceOnUse" color-interpolation-filters="sRGB">
<feFlood flood-opacity="0" result="BackgroundImageFix"/>
<feColorMatrix in="SourceAlpha" type="matrix" values="0 0 0 0 0 0 0 0 0 0 0 0 0 0 0 0 0 0 127 0" result="hardAlpha"/>
<feOffset dy="10"/>
<feGaussianBlur stdDeviation="10"/>
<feComposite in2="hardAlpha" operator="out"/>
<feColorMatrix type="matrix" values="0 0 0 0 1 0 0 0 0 1 0 0 0 0 1 0 0 0 0.4 0"/>
<feBlend mode="color-dodge" in2="BackgroundImageFix" result="effect1_dropShadow_112_345"/>
<feBlend mode="normal" in="SourceGraphic" in2="effect1_dropShadow_112_345" result="shape"/>
</filter>
</defs>
</svg>
