<svg width="141" height="48" viewBox="0 0 141 48" fill="none" xmlns="http://www.w3.org/2000/svg">
<g clip-path="url(#clip0_112_251)">
<path d="M21.5727 3.0791C9.9747 3.0791 0.572266 12.4813 0.572266 24.0792C0.572266 35.6777 9.9747 45.0791 21.5727 45.0791C33.1719 45.0791 42.5733 35.6777 42.5733 24.0792C42.5733 12.482 33.1719 3.0801 21.5724 3.0801L21.5727 3.0791ZM31.2033 33.3673C30.8271 33.9842 30.0196 34.1798 29.4028 33.8011C24.4721 30.7894 18.265 30.1073 10.955 31.7774C10.2506 31.9379 9.54839 31.4966 9.3879 30.7919C9.22665 30.0872 9.66625 29.3851 10.3724 29.2246C18.372 27.3969 25.2339 28.1839 30.7695 31.5668C31.3864 31.9454 31.582 32.7504 31.2033 33.3673ZM33.7737 27.6492C33.2997 28.4196 32.2916 28.6628 31.5218 28.1889C25.8769 24.7192 17.2722 23.7144 10.5954 25.7411C9.72945 26.0026 8.81489 25.5146 8.55208 24.6502C8.29127 23.7843 8.77953 22.8715 9.64394 22.6082C17.2707 20.2941 26.7521 21.415 33.2345 25.3985C34.0044 25.8725 34.2477 26.8806 33.7737 27.6495V27.6492ZM33.9944 21.6949C27.226 17.6748 16.0592 17.3051 9.59704 19.2664C8.55935 19.5811 7.46197 18.9953 7.1475 17.9576C6.83303 16.9194 7.41834 15.8228 8.45678 15.5073C15.8749 13.2554 28.2066 13.6905 35.9991 18.3165C36.9344 18.8704 37.2404 20.0759 36.6862 21.008C36.1345 21.9414 34.9257 22.2491 33.9954 21.6949H33.9944ZM57.7074 22.4653C54.0812 21.6006 53.4367 20.9937 53.4367 19.7186C53.4367 18.5139 54.5702 17.7031 56.2579 17.7031C57.8929 17.7031 59.5129 18.3187 61.2132 19.5861C61.2633 19.6245 61.3285 19.6398 61.3912 19.6298C61.4564 19.6203 61.5116 19.5854 61.5492 19.533L63.3196 17.0373C63.3924 16.9345 63.3723 16.7928 63.2745 16.7143C61.2508 15.0911 58.9738 14.3019 56.3106 14.3019C52.396 14.3019 49.6601 16.6514 49.6601 20.013C49.6601 23.6178 52.0199 24.8942 56.0974 25.8795C59.5656 26.6787 60.1524 27.3483 60.1524 28.545C60.1524 29.8716 58.9687 30.6966 57.0629 30.6966C54.9464 30.6966 53.2185 29.9819 51.2876 28.3118C51.24 28.2691 51.1748 28.2516 51.1146 28.2541C51.0494 28.2591 50.9917 28.2892 50.9516 28.3368L48.9655 30.6991C48.8827 30.7994 48.8927 30.9449 48.988 31.0301C51.2349 33.0363 53.9984 34.0945 56.9826 34.0945C61.2006 34.0945 63.9265 31.79 63.9265 28.2215C63.934 25.2105 62.131 23.5428 57.7149 22.4685L57.7074 22.4653ZM73.4709 18.8893C71.6428 18.8893 70.1431 19.6095 68.9043 21.0853V19.4242C68.9043 19.293 68.799 19.1862 68.6686 19.1862H65.4211C65.2907 19.1862 65.1854 19.293 65.1854 19.4242V37.8812C65.1854 38.0116 65.2907 38.1194 65.4211 38.1194H68.6686C68.799 38.1194 68.9043 38.0116 68.9043 37.8812V32.0558C70.1431 33.4425 71.6428 34.1221 73.4709 34.1221C76.8688 34.1221 80.3094 31.5066 80.3094 26.5064C80.3144 21.5053 76.8739 18.889 73.4734 18.889L73.4709 18.8893ZM76.5328 26.5064C76.5328 29.0515 74.9655 30.8295 72.7186 30.8295C70.4992 30.8295 68.8241 28.9713 68.8241 26.5064C68.8241 24.0414 70.4992 22.1836 72.7186 22.1836C74.9279 22.1834 76.5328 24.001 76.5328 26.5062V26.5064ZM89.1241 18.8893C84.7481 18.8893 81.32 22.2586 81.32 26.5609C81.32 30.817 84.7255 34.1497 89.0714 34.1497C93.4624 34.1497 96.9005 30.7919 96.9005 26.5064C96.9005 22.2356 93.485 18.8898 89.1241 18.8898V18.8893ZM89.1241 30.8546C86.7969 30.8546 85.0415 28.9838 85.0415 26.5052C85.0415 24.0153 86.7367 22.2085 89.0714 22.2085C91.4136 22.2085 93.179 24.0785 93.179 26.5596C93.179 29.049 91.4738 30.8546 89.1241 30.8546ZM106.244 19.1862H102.671V15.5334C102.671 15.4025 102.565 15.2957 102.435 15.2957H99.1875C99.0571 15.2957 98.9493 15.4025 98.9493 15.5334V19.1862H97.3895C97.2591 19.1862 97.1538 19.293 97.1538 19.4242V22.2145C97.1538 22.3454 97.2591 22.4525 97.3895 22.4525H98.9493V29.6734C98.9493 32.5899 100.401 34.0695 103.268 34.0695C104.431 34.0695 105.397 33.8287 106.307 33.3121C106.382 33.272 106.427 33.1918 106.427 33.1065V30.4483C106.427 30.3681 106.385 30.2903 106.314 30.2477C106.244 30.2026 106.156 30.2001 106.084 30.2377C105.459 30.5511 104.855 30.6966 104.178 30.6966C103.137 30.6966 102.671 30.2226 102.671 29.1644V22.4537H106.244C106.375 22.4537 106.48 22.3469 106.48 22.2157V19.4257C106.485 19.2945 106.38 19.1877 106.247 19.1877L106.244 19.1862ZM118.693 19.2005V18.7518C118.693 17.432 119.199 16.8435 120.333 16.8435C121.01 16.8435 121.554 16.9779 122.163 17.181C122.238 17.2046 122.316 17.1928 122.376 17.1479C122.439 17.103 122.474 17.031 122.474 16.9548V14.2189C122.474 14.1143 122.409 14.0218 122.306 13.9909C121.664 13.7996 120.842 13.6032 119.608 13.6032C116.611 13.6032 115.024 15.2919 115.024 18.485V19.1721H113.464C113.334 19.1721 113.226 19.279 113.226 19.4099V22.2145C113.226 22.3454 113.334 22.4525 113.464 22.4525H115.024V33.588C115.024 33.7209 115.132 33.8262 115.262 33.8262H118.507C118.64 33.8262 118.745 33.7209 118.745 33.588V22.4532H121.777L126.421 33.588C125.895 34.7566 125.376 34.9898 124.668 34.9898C124.097 34.9898 123.492 34.8193 122.878 34.4807C122.82 34.4506 122.75 34.4456 122.69 34.4632C122.627 34.4858 122.575 34.5309 122.549 34.5911L121.449 37.006C121.396 37.1214 121.441 37.2543 121.551 37.3145C122.7 37.9364 123.736 38.2022 125.017 38.2022C127.414 38.2022 128.741 37.0837 129.907 34.0795L135.539 19.5255C135.57 19.4522 135.559 19.3695 135.514 19.3045C135.472 19.2401 135.399 19.2012 135.321 19.2012H131.941C131.838 19.2012 131.748 19.2657 131.715 19.3607L128.252 29.2496L124.46 19.3542C124.425 19.2622 124.337 19.2012 124.24 19.2012H118.693V19.2005ZM111.475 19.1862H108.228C108.097 19.1862 107.99 19.293 107.99 19.4242V33.588C107.99 33.7209 108.097 33.8262 108.228 33.8262H111.475C111.606 33.8262 111.714 33.7209 111.714 33.588V19.4252C111.714 19.294 111.608 19.1872 111.475 19.1872V19.1862ZM109.87 12.7366C108.584 12.7366 107.541 13.7778 107.541 15.064C107.541 16.3509 108.584 17.3934 109.87 17.3934C111.157 17.3934 112.198 16.3509 112.198 15.064C112.198 13.778 111.154 12.7366 109.87 12.7366ZM138.313 23.7404C137.029 23.7404 136.028 22.7085 136.028 21.4554C136.028 20.2023 137.042 19.1586 138.326 19.1586C139.609 19.1586 140.61 20.1903 140.61 21.4424C140.61 22.6955 139.597 23.7404 138.313 23.7404ZM138.326 19.3858C137.154 19.3858 136.269 20.3161 136.269 21.4554C136.269 22.5942 137.149 23.512 138.313 23.512C139.484 23.512 140.369 22.5824 140.369 21.4424C140.369 20.3036 139.489 19.3858 138.326 19.3858ZM138.832 21.6773L139.479 22.5821H138.932L138.351 21.7521H137.852V22.5821H137.395V20.1837H138.463C139.023 20.1837 139.389 20.4689 139.389 20.9488C139.391 21.3421 139.163 21.5823 138.835 21.6773H138.832ZM138.446 20.5953H137.852V21.3538H138.446C138.742 21.3538 138.92 21.2086 138.92 20.9742C138.92 20.7274 138.742 20.5953 138.446 20.5953Z" fill="black"/>
</g>
<defs>
<clipPath id="clip0_112_251">
<rect width="140" height="48" fill="white" transform="translate(0.5)"/>
</clipPath>
</defs>
</svg>
