<svg width="170" height="54" viewBox="0 0 170 54" fill="none" xmlns="http://www.w3.org/2000/svg">
<g clip-path="url(#clip0_112_744)">
<path d="M96.2372 53.8825C95.0381 53.8825 94.0663 52.9825 94.0678 51.8741C94.0737 47.6233 94.0787 44.3343 94.0787 43.6924L94.0166 29.691C96.4629 29.546 98.4841 30.6914 98.5398 32.7086C98.621 35.6457 98.645 43.4013 98.6478 51.8769C98.6481 52.9842 97.6768 53.8825 96.4784 53.8825H96.2372Z" fill="white"/>
<path d="M86.5856 38.2702C86.0309 41.2314 84.5436 42.5247 81.5812 42.5484C76.4639 42.5896 71.3458 42.5598 65.9754 42.5598C65.9754 44.2277 65.8276 45.7993 66.0159 47.3294C66.2177 48.973 67.5594 49.2366 68.9883 49.2326C74.1093 49.2187 79.2303 49.2295 84.3515 49.231C85.1047 49.2312 85.8578 49.231 86.5951 49.231C86.7919 51.8307 85.3142 53.6687 82.6171 53.7489C77.6392 53.897 72.646 53.9604 67.674 53.735C63.6859 53.554 61.1926 50.5916 61.1374 46.5637C61.1054 44.2147 61.1431 41.8647 61.1157 39.5154C61.1047 38.5723 61.2649 37.913 62.4422 37.9215C70.3295 37.9791 78.217 38.0061 86.1044 38.0518C86.2289 38.0525 86.3526 38.1609 86.5856 38.2702Z" fill="white"/>
<path d="M145.003 34.5699C144.493 35.0798 144.195 35.7973 144.248 36.5866C144.341 37.9644 145.541 39.0051 146.919 39.0051L159.374 39.5491C159.847 39.5491 160.379 39.68 160.808 39.8828C163.325 41.0667 163.526 44.041 163.479 46.0402C163.382 50.1061 161.161 53.6265 154.55 53.4718C148.758 53.3364 142.949 53.5457 137.136 53.5457C137.374 51.268 139.208 49.6942 141.837 49.429H155.741C156.726 49.429 157.622 49.0296 158.268 48.3814C158.914 47.7351 159.315 46.8421 159.315 45.8541C159.315 45.6627 159.299 45.4737 159.272 45.2913C159.258 44.6426 159.002 44.0614 158.538 43.6298C158.039 43.1635 157.301 42.8658 156.369 42.8381C153.821 42.7644 151.268 42.7737 148.716 42.7829C147.805 42.7872 146.893 42.7896 145.982 42.7921C144.862 42.7921 143.808 42.6626 142.885 42.2796C141.934 41.8876 141.124 41.2274 140.526 40.1727C139.645 38.615 139.356 35.1258 140.697 33.1667C142.142 31.0573 143.965 29.9911 146.549 29.9082C153.103 29.7003 160.384 29.9544 167.203 29.9544C166.356 32.1098 165.073 33.3606 163.248 33.808H146.84C146.122 33.808 145.474 34.0991 145.003 34.5699Z" fill="white"/>
<path d="M134.522 51.9437V52.0501C134.522 53.5235 133.989 53.9126 132.514 53.8807C131.649 53.8638 130.781 53.8531 129.913 53.8468C126.569 53.8254 123.223 53.8723 119.879 53.8468C114.837 53.8106 112.421 51.3654 112.416 46.3538C112.414 45.2503 112.421 44.0894 112.428 42.9007C112.442 39.8518 112.462 36.62 112.405 33.688C110.478 33.7495 108.544 33.7005 106.363 33.7005L61.1282 33.7561C60.9735 31.5043 62.2127 29.6415 64.4004 29.5908C71.185 29.4335 102.68 29.5056 114.083 29.5183C114.484 29.5203 114.86 29.5203 115.211 29.5203C115.919 29.633 116.503 30.0692 116.764 30.6537C116.863 30.8686 116.916 31.1043 116.916 31.3513V33.2413C116.87 36.2842 116.877 39.6902 116.893 42.9007C116.898 44.1279 116.905 45.3249 116.907 46.4603C116.919 49.135 117.364 49.5517 120.115 49.558C123.329 49.5646 126.537 49.558 129.918 49.558C129.925 45.4332 129.93 42.0907 129.93 41.4974L129.867 29.9882C131.45 29.9098 132.855 30.2732 133.67 30.9835C134.083 31.3408 134.344 31.787 134.402 32.3081C134.409 32.3592 134.413 32.4142 134.415 32.4675C134.43 32.9331 134.443 33.5454 134.455 34.2791V34.4385C134.459 40.2727 134.425 46.1094 134.522 51.9437Z" fill="white"/>
<path d="M58.6353 29.7152C57.1547 32.9199 55.7019 36.1324 54.2233 39.3312L48.843 52.6467C48.5413 53.3934 47.8165 53.8825 47.0111 53.8825H46.8322C46.0679 53.8825 45.3721 53.4415 45.0457 52.7506L38.9875 39.9262C38.8236 39.5789 38.6598 39.2298 38.4959 38.8826C37.3079 36.3607 36.1357 33.8268 34.9498 31.2968C34.7158 30.7938 34.4797 30.2885 34.2417 29.7853C36.2665 29.161 38.5875 29.6508 39.7656 31.2968L39.9899 31.6502L39.9939 31.6558V31.6578L46.5051 45.6627L46.6589 45.9943L46.7391 45.809L51.6328 34.5309C52.0717 33.62 52.5183 32.7131 52.9729 31.8119C53.0645 31.6284 53.1697 31.4571 53.2831 31.2968C54.4436 29.6623 56.6849 29.1417 58.6353 29.7152Z" fill="white"/>
<path d="M52.671 9.14329C52.1163 12.1045 50.629 13.3977 47.6667 13.4215C42.5493 13.4624 37.4312 13.4328 32.0608 13.4328C32.0608 15.1008 31.9129 16.6723 32.1012 18.2025C32.3031 19.8459 33.6448 20.1096 35.0738 20.1057C40.1948 20.0918 45.3158 20.1027 50.4369 20.1041C51.1902 20.1043 51.9432 20.1041 52.6805 20.1041C52.8773 22.7037 51.3996 24.5416 48.7025 24.6219C43.7247 24.7697 38.7314 24.8334 33.7592 24.6081C29.7714 24.427 27.278 21.4645 27.2228 17.4368C27.1908 15.0879 27.2285 12.7377 27.2012 10.3885C27.1903 9.44536 27.3504 8.78606 28.5276 8.79459C36.4149 8.8523 44.3024 8.8793 52.1899 8.92475C52.3143 8.92568 52.4379 9.0339 52.671 9.14329Z" fill="white"/>
<path d="M87.1209 24.6602C85.924 24.6602 84.9546 23.6877 84.9562 22.4912C84.9622 18.2579 84.9671 14.9951 84.9671 14.3526L84.9048 0.189921C87.3511 0.0433818 89.3726 1.20184 89.428 3.24253C89.5088 6.19752 89.5329 13.9758 89.536 22.4958C89.5365 23.6908 88.5678 24.6602 87.3725 24.6602H87.1209Z" fill="white"/>
<path d="M153.28 20.426C154.923 20.3082 156.455 20.3133 157.945 20.0688C161.819 19.4331 164.586 16.2138 164.597 12.4825C164.607 8.77959 161.804 5.32546 157.95 4.92644C154.88 4.60845 151.718 4.62668 148.649 4.96591C144.889 5.38153 142.126 8.76159 142.063 12.3791C142 16.0179 144.852 19.3981 148.657 20.039C150.214 20.3012 151.814 20.3106 153.28 20.426ZM153.415 0.0360008C158.073 -0.182999 162.407 0.528231 165.816 4.0883C169.045 7.46098 170.218 11.4353 168.804 15.9083C167.306 20.6441 163.976 23.7747 159.069 24.4578C155.42 24.9657 151.602 24.9454 147.937 24.5091C141.758 23.7735 137.364 18.401 137.409 12.324C137.452 6.37383 142.091 1.18108 148.243 0.320076C149.947 0.0814618 151.69 0.123 153.415 0.0360008Z" fill="white"/>
<path d="M80.6547 20.3007C80.3892 23.1115 79.0439 24.7176 76.5954 24.7938C73.007 24.9046 69.3654 25.0266 65.8255 24.5492C59.1909 23.6515 54.797 18.3276 54.9609 11.9815C55.0277 9.31612 56.0662 6.79382 57.7649 4.76768C43.3925 4.76998 24.4949 4.74691 22.4479 4.74691V22.4502C22.4479 23.7235 21.4157 24.7545 20.1423 24.7545H19.8318C18.5585 24.7545 17.5263 23.7223 17.5263 22.4489V4.8069H0.0194773C-0.211292 2.36307 1.62101 0.341531 4.85408 0.286146C13.3071 0.140762 46.7017 0.175377 66.8894 0.198453C72.9308 0.205377 77.7908 0.2123 80.4446 0.2123C80.4977 0.623068 80.4977 1.01307 80.4493 1.37999C79.8123 3.37152 77.7446 4.53922 74.5209 4.7123C72.1809 4.72844 69.8339 4.65459 67.4986 4.76306C67.3901 4.76536 67.284 4.77228 67.1755 4.77691C63.5339 4.96845 60.5825 7.56228 59.9362 10.8692C59.2486 14.3815 60.8293 17.8522 64.09 19.3154C65.4954 19.9454 67.1525 20.2085 68.7077 20.2592C72.64 20.3885 76.5815 20.3007 80.6547 20.3007Z" fill="white"/>
<path d="M106.985 22.6752C106.988 23.8244 106.055 24.7569 104.908 24.7569H104.484C103.335 24.7569 102.404 23.822 102.407 22.6727C102.409 19.7304 102.414 17.2474 102.416 15.7751C100.219 15.7797 98.1699 15.8213 96.1252 15.7636C93.6766 15.692 92.3639 14.2774 92.103 11.3305H102.404L102.356 0.28592C104.802 0.138228 106.824 1.29669 106.879 3.33668C106.96 6.30206 106.983 14.1228 106.985 22.6752Z" fill="white"/>
<path d="M133.899 23.0658V22.3588C133.899 22.2428 133.897 22.1213 133.893 21.9936C133.798 18.6883 133.824 14.8883 133.839 11.3319C133.845 10.1243 133.852 8.94597 133.849 7.82467C133.845 2.73437 131.43 0.25015 126.387 0.212765C123.044 0.18738 119.696 0.236304 116.354 0.212765C115.486 0.206995 114.619 0.197072 113.753 0.179534C112.279 0.146072 111.746 0.542764 111.746 2.0393C111.746 2.0746 111.744 2.11176 111.746 2.1473C111.841 8.0739 111.807 14.0028 111.811 19.9296V20.0904C111.824 20.8367 111.837 21.4574 111.852 21.9306C111.854 21.9856 111.858 22.0407 111.865 22.0938C111.923 22.622 112.184 23.0755 112.596 23.4389C113.412 24.1596 114.817 24.5288 116.399 24.4502L116.337 12.7578C116.337 12.1548 116.343 8.76136 116.349 4.5706C119.729 4.5706 122.938 4.56459 126.151 4.5706C128.903 4.57636 129.348 5.00052 129.358 7.71644C129.363 8.87121 129.369 10.0869 129.374 11.3319C129.389 14.5938 129.397 18.0542 129.35 21.1452V23.0658C129.35 24.1105 130.28 24.9551 131.426 24.9551H131.823C132.969 24.9551 133.899 24.1105 133.899 23.0658Z" fill="white"/>
<path d="M71.3128 4.49422C71.1582 4.50575 70.999 4.51037 70.8398 4.51499C70.2444 4.52883 67.8075 4.53806 64.2905 4.54498C66.6259 4.43652 68.9728 4.51037 71.3128 4.49422Z" fill="white"/>
</g>
<defs>
<clipPath id="clip0_112_744">
<rect width="169.442" height="54" fill="white"/>
</clipPath>
</defs>
</svg>
