<svg width="21" height="18" viewBox="0 0 21 18" fill="none" xmlns="http://www.w3.org/2000/svg">
<path d="M9.92628 5.06916L9.9697 5.79581L9.24603 5.70683C6.61188 5.36575 4.31062 4.20905 2.35672 2.26638L1.40148 1.30246L1.15544 2.01428C0.634395 3.60104 0.967282 5.27677 2.05278 6.40382C2.63172 7.02666 2.50146 7.11564 1.5028 6.7449C1.15544 6.62626 0.851495 6.53728 0.822549 6.58177C0.721235 6.68558 1.0686 8.03507 1.34359 8.56893C1.7199 9.31041 2.48698 10.0371 3.32644 10.4671L4.03563 10.8082L3.19618 10.823C2.38567 10.823 2.35672 10.8378 2.44356 11.1493C2.73303 12.1132 3.87642 13.1364 5.15008 13.5813L6.04742 13.8927L5.26586 14.3673C4.108 15.0494 2.7475 15.435 1.38701 15.4647C0.735709 15.4795 0.200195 15.5388 0.200195 15.5833C0.200195 15.7316 1.96594 16.5621 2.99355 16.8883C6.07637 17.8522 9.73812 17.437 12.4881 15.7909C14.442 14.6194 16.3959 12.2911 17.3077 10.0371C17.7998 8.83586 18.2919 6.64109 18.2919 5.58819C18.2919 4.90604 18.3353 4.81706 19.1458 4.00143C19.6234 3.52689 20.0721 3.00785 20.1589 2.85956C20.3037 2.5778 20.2892 2.5778 19.551 2.8299C18.3208 3.27479 18.1471 3.21547 18.755 2.54814C19.2037 2.07359 19.7392 1.21348 19.7392 0.961379C19.7392 0.91689 19.5221 0.991038 19.2761 1.1245C19.0155 1.2728 18.4366 1.49524 18.0024 1.62871L17.2208 1.88081L16.5116 1.39144C16.1209 1.1245 15.5709 0.827913 15.2814 0.738936C14.5433 0.531322 13.4144 0.560981 12.7486 0.798254C10.9394 1.46558 9.79602 3.18581 9.92628 5.06916Z" fill="#475467"/>
</svg>
