<svg width="73" height="48" viewBox="0 0 73 48" fill="none" xmlns="http://www.w3.org/2000/svg">
<g clip-path="url(#clip0_112_262)">
<path d="M4.64324 28.8547C4.94757 29.6623 5.3689 30.3528 5.90732 30.9263C6.44573 31.4998 7.0836 31.9387 7.82091 32.243C8.5583 32.5474 9.36002 32.6995 10.2261 32.6995C11.0689 32.6995 11.8589 32.5415 12.5963 32.2254C13.3337 31.9094 13.9773 31.4646 14.5274 30.8912C15.0775 30.3176 15.5047 29.633 15.809 28.8371C16.1134 28.0412 16.2655 27.1518 16.2655 26.1686V11H19.9523V35.5787H16.3006V33.2963C15.4813 34.1624 14.5157 34.8295 13.4038 35.2978C12.2919 35.7659 11.0923 36 9.80481 36C8.49389 36 7.27084 35.7717 6.1355 35.3153C5.00024 34.8588 4.01703 34.2093 3.1861 33.3666C2.35517 32.5238 1.69967 31.5116 1.21983 30.3294C0.739918 29.1473 0.5 27.8306 0.5 26.3792V11H4.18679V26.1686C4.18679 27.1518 4.33892 28.0471 4.64324 28.8547Z" fill="black"/>
<path d="M26.3073 11V19.9536C27.1266 19.1344 28.0747 18.4848 29.1514 18.0049C30.2282 17.525 31.3987 17.2851 32.6626 17.2851C33.9736 17.2851 35.2024 17.5308 36.3494 18.0224C37.4964 18.514 38.4912 19.1811 39.334 20.0239C40.1767 20.8666 40.8439 21.8614 41.3354 23.0084C41.827 24.1555 42.0727 25.3727 42.0727 26.6601C42.0727 27.9475 41.827 29.1589 41.3354 30.2942C40.8439 31.4295 40.1767 32.4186 39.334 33.2611C38.4912 34.1039 37.4964 34.771 36.3494 35.2626C35.2024 35.7542 33.9735 35.9999 32.6626 35.9999C31.3986 35.9999 30.2224 35.76 29.1339 35.2801C28.0454 34.8003 27.0915 34.1507 26.2722 33.3314V35.5786H22.761V11H26.3073ZM26.7111 29.0829C27.0271 29.832 27.466 30.4874 28.0278 31.0492C28.5896 31.611 29.2451 32.0558 29.9941 32.3835C30.7432 32.7112 31.5508 32.8751 32.4169 32.8751C33.2596 32.8751 34.0555 32.7112 34.8045 32.3835C35.5536 32.0558 36.2031 31.6111 36.7533 31.0492C37.3034 30.4875 37.7423 29.832 38.07 29.0829C38.3977 28.3338 38.5615 27.5263 38.5615 26.6601C38.5615 25.794 38.3977 24.9806 38.07 24.2198C37.7423 23.459 37.3034 22.7978 36.7533 22.236C36.2031 21.6742 35.5536 21.2353 34.8045 20.9193C34.0554 20.6033 33.2596 20.4452 32.4169 20.4452C31.5742 20.4452 30.7783 20.6032 30.0293 20.9193C29.2803 21.2353 28.6248 21.6742 28.063 22.236C27.5012 22.7978 27.0564 23.459 26.7287 24.2198C26.401 24.9806 26.2372 25.794 26.2372 26.6601C26.2371 27.5263 26.3951 28.3338 26.7111 29.0829Z" fill="black"/>
<path d="M44.0737 23.0435C44.5418 21.9199 45.1856 20.931 46.0048 20.0766C46.8241 19.2222 47.7956 18.5492 48.9192 18.0576C50.0428 17.5661 51.26 17.3203 52.5709 17.3203C53.8583 17.3203 55.0522 17.5544 56.1524 18.0225C57.2525 18.4907 58.2006 19.1403 58.9965 19.9713C59.7923 20.8022 60.4127 21.7854 60.8574 22.9207C61.3022 24.056 61.5245 25.2908 61.5245 26.6251V27.7838H46.9529C47.07 28.5095 47.3041 29.1825 47.6552 29.8027C48.0064 30.423 48.4452 30.9614 48.9719 31.4179C49.4986 31.8744 50.0955 32.2314 50.7626 32.4888C51.4298 32.7463 52.1378 32.8751 52.8869 32.8751C55.0171 32.8751 56.7377 31.9972 58.0485 30.2416L60.6117 32.1376C59.7222 33.3315 58.622 34.2678 57.3112 34.9466C56.0003 35.6255 54.5256 35.9649 52.887 35.9649C51.5527 35.9649 50.3063 35.7307 49.1476 35.2626C47.9888 34.7945 46.9823 34.139 46.1279 33.2963C45.2735 32.4535 44.6005 31.4646 44.109 30.3293C43.6174 29.1941 43.3716 27.9592 43.3716 26.625C43.3714 25.361 43.6056 24.1671 44.0737 23.0435ZM49.007 21.6565C48.0121 22.4876 47.3509 23.5936 47.0232 24.9747H57.9432C57.6388 23.5936 56.9892 22.4876 55.9944 21.6565C54.9995 20.8256 53.835 20.4101 52.5007 20.4101C51.1664 20.4101 50.0019 20.8256 49.007 21.6565Z" fill="black"/>
<path d="M68.1607 22.0604C67.4117 22.8797 67.0371 23.9915 67.0371 25.3961V35.5788H63.4907V17.6714H67.0019V19.8835C67.4467 19.1578 68.0261 18.5843 68.74 18.163C69.4539 17.7415 70.3025 17.5308 71.2857 17.5308H72.5146V20.8314H71.0399C69.8695 20.8315 68.9097 21.2411 68.1607 22.0604Z" fill="black"/>
</g>
<defs>
<clipPath id="clip0_112_262">
<rect width="72" height="48" fill="white" transform="translate(0.5)"/>
</clipPath>
</defs>
</svg>
