<svg width="45" height="45" viewBox="0 0 45 45" fill="none" xmlns="http://www.w3.org/2000/svg">
<path d="M40.121 6.46163C41.0354 6.46163 41.7752 5.72179 41.7752 4.80745C41.7752 3.89311 41.0354 3.15326 40.121 3.15326C39.2067 3.15326 38.4668 3.89311 38.4668 4.80745C38.4668 5.72179 39.2137 6.46163 40.121 6.46163ZM40.121 4.33283C40.3862 4.33283 40.6026 4.5492 40.6026 4.81443C40.6026 5.07965 40.3862 5.29603 40.121 5.29603C39.8488 5.29603 39.6394 5.08663 39.6394 4.81443C39.6394 4.54222 39.8558 4.33283 40.121 4.33283Z" fill="black"/>
<path d="M41.9568 0.47998H7.95175C6.66051 0.47998 5.60657 1.53391 5.60657 2.82516V6.40574H3.27535C1.98411 6.40574 0.930176 7.45968 0.930176 8.75092V38.1564C0.930176 39.4476 1.98411 40.5016 3.27535 40.5016H18.861V43.8937C18.861 44.2148 19.1262 44.48 19.4473 44.48H30.4613C30.7823 44.48 31.0476 44.2148 31.0476 43.8937V40.5016H37.2804C38.5717 40.5016 39.6256 39.4476 39.6256 38.1564V34.5758H41.9568C43.2481 34.5758 44.302 33.5219 44.302 32.2306V2.82516C44.302 1.53391 43.2481 0.47998 41.9568 0.47998ZM6.77916 2.82516C6.77916 2.17605 7.30962 1.65257 7.95175 1.65257H41.9568C42.6059 1.65257 43.1294 2.18303 43.1294 2.82516V7.96919H20.8781L18.2608 5.25409C18.0583 5.0447 17.7792 4.92605 17.493 4.92605H11.7278C11.1415 4.92605 10.6599 5.40765 10.6599 5.99394V7.96919H6.77916V2.82516ZM3.27535 39.3359C2.62624 39.3359 2.10276 38.8055 2.10276 38.1634V8.75092C2.10276 8.10181 2.63322 7.57833 3.27535 7.57833H5.60657V32.2376C5.60657 33.5288 6.66051 34.5828 7.95175 34.5828H20.6827C20.913 35.0295 21.0177 35.532 20.9759 36.0485H20.0685C19.3985 36.0485 18.861 36.5929 18.861 37.256V39.3359H3.27535ZM24.375 27.0587C24.4936 26.8493 24.71 26.7167 24.9543 26.7167C25.3172 26.7167 25.6104 27.0098 25.6104 27.3727C25.6104 27.6101 25.4847 27.8264 25.2823 27.9451C25.059 28.0777 24.7938 28.0637 24.5215 27.9102C24.4867 27.8892 24.4518 27.8613 24.4378 27.8264C24.2144 27.4705 24.3052 27.1913 24.375 27.0587ZM24.368 25.6557C23.9422 25.8023 23.5793 26.0885 23.3559 26.4933C23.0209 27.0936 23.0628 27.8264 23.4537 28.4546C23.5793 28.65 23.7468 28.8106 23.9492 28.9292C24.2703 29.1107 24.6193 29.2084 24.9613 29.2084C25.2823 29.2084 25.5964 29.1247 25.8756 28.9641C26.434 28.6361 26.783 28.0288 26.783 27.3797C26.783 26.5771 26.2595 25.9 25.5406 25.6557V22.6405L30.7265 32.0003C30.7195 32.0073 30.7125 32.0212 30.6916 32.0282C28.8559 32.5028 27.6554 34.2198 27.7531 36.0485H22.1624C22.2671 34.2128 21.0596 32.4958 19.1891 31.9724L24.368 22.6405V25.6557ZM29.875 43.3074H20.0336L20.0685 37.2141H29.8401C29.861 37.2141 29.875 37.2281 29.875 37.249V43.3074ZM38.453 38.1564C38.453 38.8055 37.9226 39.329 37.2804 39.329H31.0476V37.249C31.0476 36.579 30.5031 36.0415 29.8401 36.0415H28.9327C28.8908 35.525 29.0025 35.0225 29.2259 34.5758H38.453V38.1564ZM41.9568 33.4102H30.3636C30.552 33.3055 30.7544 33.2148 30.9778 33.1589C31.3477 33.0612 31.6478 32.803 31.8014 32.454C31.9479 32.112 31.927 31.7281 31.7455 31.4L25.743 20.5885C25.5894 20.3023 25.2893 20.1208 24.9613 20.1208C24.6262 20.1278 24.3261 20.2953 24.1656 20.5815L18.1561 31.4C17.9746 31.7281 17.9606 32.1189 18.1072 32.4609C18.2538 32.8099 18.5539 33.0612 18.9238 33.1589C19.1472 33.2148 19.3426 33.3055 19.538 33.4102H7.95175C7.30264 33.4102 6.77916 32.8797 6.77916 32.2376V9.14178H10.7576C11.3439 9.14178 11.8255 8.66018 11.8255 8.07389V6.09863H17.4441L20.0615 8.81374C20.2639 9.02313 20.5431 9.14178 20.8293 9.14178H43.1294V32.2306C43.1294 32.8797 42.6059 33.4102 41.9568 33.4102Z" fill="black"/>
<path d="M36.1288 6.46163C37.0432 6.46163 37.783 5.72179 37.783 4.80745C37.783 3.89311 37.0432 3.15326 36.1288 3.15326C35.2145 3.15326 34.4746 3.89311 34.4746 4.80745C34.4746 5.72179 35.2145 6.46163 36.1288 6.46163ZM36.1288 4.33283C36.3941 4.33283 36.6104 4.5492 36.6104 4.81443C36.6104 5.07965 36.3941 5.29603 36.1288 5.29603C35.8566 5.29603 35.6472 5.08663 35.6472 4.81443C35.6472 4.54222 35.8636 4.33283 36.1288 4.33283Z" fill="black"/>
<path d="M32.1291 6.46163C33.0435 6.46163 33.7833 5.72179 33.7833 4.80745C33.7833 3.89311 33.0435 3.15326 32.1291 3.15326C31.2148 3.15326 30.4749 3.89311 30.4749 4.80745C30.4749 5.72179 31.2148 6.46163 32.1291 6.46163ZM32.1291 4.33283C32.3944 4.33283 32.6107 4.5492 32.6107 4.81443C32.6107 5.07965 32.3944 5.29603 32.1291 5.29603C31.8569 5.29603 31.6475 5.08663 31.6475 4.81443C31.6475 4.54222 31.8639 4.33283 32.1291 4.33283Z" fill="black"/>
<path d="M36.2541 14.251C35.9121 14.593 35.6958 15.0257 35.612 15.4864H27.4109V14.565C27.4109 13.9369 26.9013 13.4274 26.2732 13.4274H23.6279C22.9997 13.4274 22.4902 13.9369 22.4902 14.565V15.4864H14.296C14.2192 15.0327 14.0029 14.5999 13.6539 14.244C12.7675 13.3715 11.2529 13.3855 10.3874 14.251C9.94766 14.6907 9.71035 15.27 9.71035 15.8842C9.71035 16.5054 9.95464 17.0917 10.3874 17.5175C10.8271 17.9711 11.4134 18.2015 12.0206 18.2015C12.4045 18.2015 12.7954 18.1107 13.1653 17.9223C13.5631 17.7199 13.8912 17.3848 14.0866 16.973C14.1355 16.8683 14.1774 16.7636 14.2123 16.6589H19.9007C16.8087 18.1666 14.4775 21.0003 13.6678 24.4204H12.7605C12.1323 24.4204 11.6228 24.9299 11.6228 25.5581V28.2034C11.6228 28.8315 12.1323 29.3411 12.7605 29.3411H15.4058C16.034 29.3411 16.5435 28.8315 16.5435 28.2034V25.5581C16.5435 24.9299 16.034 24.4204 15.4058 24.4204H14.8753C15.8525 20.7351 18.8049 17.8455 22.5111 16.9521V17.2034C22.5111 17.8315 23.0206 18.3411 23.6488 18.3411H26.2941C26.9223 18.3411 27.4318 17.8315 27.4318 17.2034V16.9521C31.131 17.8455 34.0834 20.7351 35.0676 24.4204H34.586C33.9578 24.4204 33.4483 24.9299 33.4483 25.5581V28.2034C33.4483 28.8315 33.9578 29.3411 34.586 29.3411H37.2313C37.8595 29.3411 38.369 28.8315 38.369 28.2034V25.5581C38.369 24.9299 37.8595 24.4204 37.2313 24.4204H36.2751C35.4584 21.0003 33.1272 18.1596 30.0422 16.6589H35.7446C35.8563 16.98 36.0378 17.2732 36.2821 17.5175C36.7218 17.9711 37.3081 18.2015 37.9153 18.2015C38.2992 18.2015 38.69 18.1107 39.06 17.9223C39.4578 17.7199 39.7859 17.3848 39.9813 16.973C40.435 16.0168 40.2744 14.9768 39.5555 14.244C38.6412 13.3785 37.1266 13.3855 36.2541 14.251ZM13.0187 16.4775C12.935 16.645 12.7954 16.7916 12.6279 16.8753C12.0206 17.1824 11.4971 16.987 11.211 16.6869C10.9946 16.4775 10.876 16.1913 10.876 15.8842C10.876 15.5841 10.9946 15.2979 11.211 15.0746C11.4274 14.8582 11.7135 14.7395 12.0206 14.7395C12.3208 14.7395 12.6139 14.8582 12.8233 15.0676C13.1862 15.4445 13.256 15.968 13.0187 16.4775ZM15.3918 28.1685L12.7814 28.2034L12.7465 25.593H15.3569L15.3918 28.1685ZM37.2104 28.1685L34.5999 28.2034L34.565 25.593H37.1754L37.2104 28.1685ZM23.6697 17.2103L23.6558 16.3309C23.6697 16.2681 23.6697 16.2053 23.6628 16.1355V16.1285C23.6628 16.1076 23.6767 16.0936 23.6767 16.0727C23.6767 16.0378 23.6628 16.0098 23.6558 15.9819L23.6348 14.6069H26.2452L26.2662 15.9819C26.2592 16.0168 26.2452 16.0447 26.2452 16.0796C26.2452 16.1006 26.2522 16.1145 26.2592 16.1355V16.1425C26.2452 16.2332 26.2522 16.3169 26.2732 16.3937L26.2871 17.1824L23.6697 17.2103ZM38.8925 16.4775C38.8087 16.645 38.6691 16.7916 38.5016 16.8753C37.8944 17.1824 37.3709 16.987 37.0847 16.6869C36.8683 16.4775 36.7497 16.1913 36.7497 15.8842C36.7497 15.5841 36.8683 15.2979 37.0847 15.0746C37.3011 14.8582 37.5873 14.7395 37.8944 14.7395C38.1945 14.7395 38.4876 14.8582 38.697 15.0676C39.06 15.4445 39.1298 15.968 38.8925 16.4775Z" fill="black"/>
</svg>
