<svg width="38" height="44" viewBox="0 0 38 44" fill="none" xmlns="http://www.w3.org/2000/svg">
<g clip-path="url(#clip0_112_406)">
<path d="M34.5507 34.3401H32.2402V35.8504H34.5507V34.3401Z" fill="black"/>
<path d="M30.9921 34.3401H28.6816V35.8504H30.9921V34.3401Z" fill="black"/>
<path d="M27.435 34.3401H25.1245V35.8504H27.435V34.3401Z" fill="black"/>
<path d="M37.7439 32.5625V15.5493C37.7439 15.1324 37.4056 14.7941 36.9887 14.7941H34.1502V0.755177C34.1502 0.33827 33.812 0 33.3951 0H4.34882C3.93191 0 3.59365 0.33827 3.59365 0.755177V14.794H0.755177C0.33827 14.794 0 15.1323 0 15.5492V37.6291C0 38.046 0.33827 38.3842 0.755177 38.3842H14.1656L12.785 42.4896H10.6572C10.2403 42.4896 9.90206 42.8279 9.90206 43.2448C9.90206 43.6617 10.2403 44 10.6572 44H27.0864C27.5033 44 27.8416 43.6617 27.8416 43.2448C27.8416 42.8279 27.5033 42.4896 27.0864 42.4896H24.9625L23.5855 38.3842H36.9886C37.4055 38.3842 37.7438 38.0472 37.7438 37.6291V32.5626L37.7439 32.5625ZM36.2323 16.3043V31.8073H34.1502V16.3043H36.2323ZM5.104 1.51035H32.6399V31.8073H5.104V1.51035ZM3.59365 16.3043V31.8073H1.51035V16.3043H3.59365ZM23.3702 42.4896H14.3824L15.7595 38.3842H21.9931L23.3702 42.4896ZM15.2521 36.8739C15.2276 36.8726 15.2032 36.8726 15.1789 36.8739H1.51035V33.3177H36.2323V36.8739H15.2521Z" fill="black"/>
<path d="M7.30731 17.2918C7.90408 17.6772 11.6922 20.0992 14.9704 21.6091C15.019 21.6382 15.0705 21.6618 15.1242 21.6794C16.5228 22.3144 17.8169 22.7731 18.7146 22.823C18.7353 22.8254 18.7562 22.827 18.7774 22.8278H18.9646C18.9836 22.8272 19.0022 22.8257 19.0207 22.8237C19.9166 22.7764 21.2108 22.3188 22.6104 21.6839C22.673 21.6648 22.7328 21.6375 22.7888 21.6024C26.0635 20.0919 29.8412 17.6767 30.4371 17.2919C30.5269 17.2332 30.6031 17.1571 30.6618 17.0672C30.8877 16.7165 30.7878 16.2484 30.4371 16.0225C29.8388 15.636 26.0331 13.203 22.7494 11.6939C22.713 11.6734 22.6754 11.6563 22.6368 11.6424C21.1478 10.9653 19.7756 10.4866 18.8723 10.4866C15.9614 10.4866 8.18493 15.4558 7.30743 16.0225C7.21756 16.0811 7.14142 16.1573 7.08275 16.2471C6.85682 16.5979 6.95668 17.066 7.30743 17.2919L7.30731 17.2918ZM15.1574 19.6921C13.4954 17.6561 13.7835 14.6666 15.7923 12.9839C17.0376 12.4138 18.1283 12.0229 18.8086 11.9993H18.935C19.5998 12.0228 20.6882 12.4083 21.9625 12.9899C22.1908 13.1819 22.401 13.3957 22.5906 13.627C24.2487 15.6582 23.9659 18.6384 21.9699 20.3234C20.7188 20.8972 19.6221 21.2915 18.9383 21.3159C18.9317 21.3159 18.9251 21.3159 18.9183 21.3159H18.8234C18.818 21.3158 18.8125 21.3159 18.8071 21.3159C18.1414 21.2917 17.0528 20.9054 15.7786 20.3232C15.553 20.1327 15.3451 19.9209 15.1575 19.692L15.1574 19.6921ZM24.7771 18.8971C25.3287 17.4429 25.316 15.8411 24.7709 14.41C26.0969 15.1325 27.4427 15.9267 28.6133 16.6563C27.5698 17.3033 26.1899 18.1246 24.7771 18.897V18.8971ZM12.9759 14.4134C12.4209 15.8681 12.431 17.4718 12.975 18.905C11.6491 18.1825 10.303 17.3884 9.13084 16.6589C10.1765 16.0107 11.56 15.1873 12.9759 14.4134Z" fill="black"/>
<path d="M18.8721 19.8018C20.6071 19.8005 22.0139 18.3938 22.0151 16.6587V16.6562C22.0139 14.9199 20.6059 13.5132 18.8696 13.5132C17.1333 13.5144 15.7266 14.9224 15.7266 16.6587C15.7278 18.395 17.1358 19.8018 18.8721 19.8018ZM18.8721 15.0248C19.7733 15.026 20.5035 15.7562 20.5048 16.6575V16.6587C20.5048 17.5612 19.7733 18.2914 18.8708 18.2914C17.9684 18.2914 17.2382 17.5599 17.2382 16.6575C17.2382 15.755 17.9696 15.0248 18.8721 15.0248Z" fill="black"/>
<path d="M19.6158 5.34985H18.1055V8.75626H19.6158V5.34985Z" fill="black"/>
<path d="M24.7615 6.83781L22.9448 9.71924L24.2225 10.5247L26.0391 7.64331L24.7615 6.83781Z" fill="black"/>
<path d="M12.9812 6.8361L11.7036 7.6416L13.5203 10.523L14.7979 9.71753L12.9812 6.8361Z" fill="black"/>
<path d="M19.6158 24.5601H18.1055V27.9665H19.6158V24.5601Z" fill="black"/>
<path d="M24.2225 22.7931L22.9448 23.5986L24.7615 26.4801L26.0391 25.6746L24.2225 22.7931Z" fill="black"/>
<path d="M13.5193 22.7919L11.7026 25.6733L12.9803 26.4788L14.7969 23.5974L13.5193 22.7919Z" fill="black"/>
</g>
<defs>
<clipPath id="clip0_112_406">
<rect width="37.7439" height="44" fill="white"/>
</clipPath>
</defs>
</svg>
