<svg width="25" height="18" viewBox="0 0 25 18" fill="none" xmlns="http://www.w3.org/2000/svg">
<path d="M23.6853 3.22347C23.4165 2.19081 22.6244 1.37764 21.6187 1.10166C19.796 0.600098 12.4868 0.600098 12.4868 0.600098C12.4868 0.600098 5.1775 0.600098 3.35473 1.10166C2.34899 1.37764 1.55693 2.19081 1.28813 3.22347C0.799805 5.09505 0.799805 9.0001 0.799805 9.0001C0.799805 9.0001 0.799805 12.905 1.28813 14.7767C1.55693 15.8094 2.34899 16.6226 3.35473 16.8987C5.1775 17.4001 12.4868 17.4001 12.4868 17.4001C12.4868 17.4001 19.796 17.4001 21.6187 16.8987C22.6244 16.6226 23.4165 15.8094 23.6853 14.7767C24.1737 12.905 24.1737 9.0001 24.1737 9.0001C24.1737 9.0001 24.1737 5.09505 23.6853 3.22347Z" fill="#475467"/>
<path d="M10.2954 13.0168V5.7124L16.1389 9.36472L10.2954 13.0168Z" fill="white"/>
</svg>
