<svg width="99" height="48" viewBox="0 0 99 48" fill="none" xmlns="http://www.w3.org/2000/svg">
<g clip-path="url(#clip0_112_260)">
<path fill-rule="evenodd" clip-rule="evenodd" d="M80.2073 20.5972C80.5815 21.2429 80.7039 21.9774 80.7443 22.8032L80.7975 23.9039V31.6007L80.8517 32.7025C80.9603 34.502 82.2874 35.8325 84.1007 35.9457L85.1968 36V23.9039L85.2511 22.8032C85.2961 21.9867 85.4174 21.2382 85.7974 20.588C86.1846 19.921 86.7404 19.3677 87.4091 18.9835C88.0778 18.5993 88.8358 18.3978 89.607 18.3992C90.3782 18.4006 91.1355 18.6049 91.8028 18.9915C92.47 19.3781 93.0239 19.9335 93.4086 20.6018C93.7829 21.2475 93.8995 21.9959 93.9446 22.8032L93.9988 23.9005V31.6007L94.0531 32.7025C94.1663 34.5112 95.483 35.8418 97.3021 35.9457L98.3981 36V22.8032C98.3981 20.4697 97.4714 18.2317 95.8216 16.5813C94.1719 14.9309 91.9342 14.0032 89.6007 14.0023C88.3517 14.001 87.1168 14.2662 85.9786 14.7803C84.8403 15.2944 83.8248 16.0454 83 16.9833C82.1748 16.0458 81.1593 15.2949 80.0211 14.7807C78.8829 14.2665 77.6482 14.0007 76.3993 14.0012C74.5721 14.0012 72.8766 14.5555 71.4722 15.513C70.6152 14.5567 68.6979 14.0012 67.5972 14.0012V36L68.6979 35.9457C70.539 35.8244 71.8695 34.5297 71.9411 32.7025L72 31.6007V23.9039L72.0543 22.8032C72.1005 21.9728 72.216 21.2429 72.5913 20.5926C72.9789 19.9261 73.5345 19.3728 74.2027 18.9882C74.8709 18.6035 75.6283 18.4009 76.3993 18.4005C77.1709 18.4006 77.9289 18.6037 78.5973 18.9893C79.2656 19.3748 79.8209 19.9294 80.2073 20.5972ZM4.89931 35.9469L6 36H22.4988L22.4446 34.9028C22.2956 33.0941 21.0147 31.7728 19.2002 31.655L18.0995 31.6007H8.20139L21.3982 18.3993L21.3439 17.3032C21.2584 15.4761 19.9232 14.1559 18.0995 14.0554L16.9988 14.0058L0.5 14.0012L0.554284 15.1019C0.698656 16.8932 1.998 18.2422 3.79746 18.3462L4.89931 18.4005H14.7975L1.60069 31.6018L1.65498 32.7025C1.76354 34.5159 3.07213 35.8291 4.89931 35.9457V35.9469ZM63.2788 17.2212C64.3004 18.2426 65.1107 19.4552 65.6636 20.7898C66.2165 22.1244 66.5011 23.5548 66.5011 24.9994C66.5011 26.444 66.2165 27.8744 65.6636 29.209C65.1107 30.5436 64.3004 31.7562 63.2788 32.7776C61.2148 34.8399 58.4165 35.9983 55.4988 35.9983C52.5812 35.9983 49.7829 34.8399 47.7189 32.7776C43.4236 28.4823 43.4236 21.5166 47.7189 17.2212C48.7396 16.2002 49.9513 15.3902 51.285 14.8375C52.6187 14.2848 54.0482 14.0002 55.4919 14C56.9379 13.999 58.37 14.2831 59.7061 14.836C61.0423 15.3889 62.2563 16.1999 63.2788 17.2224V17.2212ZM60.1661 20.3362C61.4033 21.5744 62.0983 23.2531 62.0983 25.0035C62.0983 26.7538 61.4033 28.4326 60.1661 29.6707C58.9279 30.908 57.2492 31.6029 55.4988 31.6029C53.7485 31.6029 52.0697 30.908 50.8316 29.6707C49.5944 28.4326 48.8994 26.7538 48.8994 25.0035C48.8994 23.2531 49.5944 21.5744 50.8316 20.3362C52.0697 19.099 53.7485 18.404 55.4988 18.404C57.2492 18.404 58.9279 19.099 60.1661 20.3362ZM32.4062 14C33.85 14.0004 35.2795 14.2851 36.6133 14.8381C37.9469 15.391 39.1587 16.2012 40.1792 17.2224C44.4757 21.5166 44.4757 28.4834 40.1792 32.7776C38.1153 34.8399 35.317 35.9983 32.3993 35.9983C29.4816 35.9983 26.6833 34.8399 24.6194 32.7776C20.324 28.4823 20.324 21.5166 24.6194 17.2212C25.64 16.2002 26.8518 15.3902 28.1855 14.8375C29.5192 14.2848 30.9487 14.0002 32.3924 14H32.4062ZM37.0666 20.3339C38.3041 21.5721 38.9994 23.2511 38.9994 25.0017C38.9994 26.7524 38.3041 28.4314 37.0666 29.6696C35.8284 30.9068 34.1497 31.6018 32.3993 31.6018C30.6489 31.6018 28.9702 30.9068 27.732 29.6696C26.4948 28.4314 25.7998 26.7527 25.7998 25.0023C25.7998 23.252 26.4948 21.5732 27.732 20.335C28.9702 19.0978 30.6489 18.4028 32.3993 18.4028C34.1497 18.4028 35.8284 19.0978 37.0666 20.335V20.3339Z" fill="black"/>
</g>
<defs>
<clipPath id="clip0_112_260">
<rect width="98" height="48" fill="white" transform="translate(0.5)"/>
</clipPath>
</defs>
</svg>
